<mxfile host="Electron" modified="2023-11-07T22:24:25.818Z" agent="Mozilla/5.0 (X11; Linux x86_64) AppleWebKit/537.36 (KHTML, like Gecko) draw.io/22.0.3 Chrome/114.0.5735.289 Electron/25.8.4 Safari/537.36" etag="iVWmyICvzEFFnKrKnZfg" version="22.0.3" type="device">
  <diagram name="Page-1" id="Ly6lGSdU-FOQbb2JsQHI">
    <mxGraphModel dx="3187" dy="1822" grid="1" gridSize="10" guides="1" tooltips="1" connect="1" arrows="1" fold="1" page="1" pageScale="1" pageWidth="850" pageHeight="1100" math="0" shadow="0">
      <root>
        <mxCell id="0" />
        <mxCell id="1" parent="0" />
        <mxCell id="qlpNwuft5wFHGggAAQwj-445" value="" style="rounded=0;whiteSpace=wrap;html=1;" vertex="1" parent="1">
          <mxGeometry x="1480" y="1340" width="2120" height="1570" as="geometry" />
        </mxCell>
        <mxCell id="PnXe8qApEqEV6tvW-mXD-3" value="" style="whiteSpace=wrap;html=1;aspect=fixed;" parent="1" vertex="1">
          <mxGeometry x="760" y="160" width="750" height="750" as="geometry" />
        </mxCell>
        <mxCell id="PnXe8qApEqEV6tvW-mXD-4" value="" style="group" parent="1" vertex="1" connectable="0">
          <mxGeometry x="150" y="220" width="150" height="680" as="geometry" />
        </mxCell>
        <mxCell id="PnXe8qApEqEV6tvW-mXD-1" value="" style="rounded=1;whiteSpace=wrap;html=1;arcSize=5;" parent="PnXe8qApEqEV6tvW-mXD-4" vertex="1">
          <mxGeometry width="150" height="680" as="geometry" />
        </mxCell>
        <mxCell id="PnXe8qApEqEV6tvW-mXD-2" value="&lt;font style=&quot;font-size: 24px;&quot;&gt;RAM&lt;/font&gt;" style="text;strokeColor=none;align=center;fillColor=none;html=1;verticalAlign=middle;whiteSpace=wrap;rounded=0;" parent="PnXe8qApEqEV6tvW-mXD-4" vertex="1">
          <mxGeometry x="45" y="10" width="60" height="30" as="geometry" />
        </mxCell>
        <mxCell id="PnXe8qApEqEV6tvW-mXD-6" value="" style="endArrow=none;html=1;rounded=0;entryX=0;entryY=0.933;entryDx=0;entryDy=0;entryPerimeter=0;exitX=1;exitY=0.941;exitDx=0;exitDy=0;exitPerimeter=0;" parent="1" source="PnXe8qApEqEV6tvW-mXD-1" target="PnXe8qApEqEV6tvW-mXD-3" edge="1">
          <mxGeometry width="50" height="50" relative="1" as="geometry">
            <mxPoint x="300" y="860" as="sourcePoint" />
            <mxPoint x="440" y="860" as="targetPoint" />
          </mxGeometry>
        </mxCell>
        <mxCell id="PnXe8qApEqEV6tvW-mXD-9" value="" style="endArrow=none;html=1;rounded=0;exitX=0.994;exitY=0.927;exitDx=0;exitDy=0;exitPerimeter=0;entryX=0;entryY=0.919;entryDx=0;entryDy=0;entryPerimeter=0;" parent="1" source="PnXe8qApEqEV6tvW-mXD-1" target="PnXe8qApEqEV6tvW-mXD-3" edge="1">
          <mxGeometry width="50" height="50" relative="1" as="geometry">
            <mxPoint x="450" y="830" as="sourcePoint" />
            <mxPoint x="500" y="780" as="targetPoint" />
          </mxGeometry>
        </mxCell>
        <mxCell id="PnXe8qApEqEV6tvW-mXD-10" value="" style="endArrow=none;html=1;rounded=0;exitX=0.994;exitY=0.916;exitDx=0;exitDy=0;exitPerimeter=0;entryX=-0.003;entryY=0.908;entryDx=0;entryDy=0;entryPerimeter=0;" parent="1" source="PnXe8qApEqEV6tvW-mXD-1" target="PnXe8qApEqEV6tvW-mXD-3" edge="1">
          <mxGeometry width="50" height="50" relative="1" as="geometry">
            <mxPoint x="450" y="830" as="sourcePoint" />
            <mxPoint x="500" y="780" as="targetPoint" />
          </mxGeometry>
        </mxCell>
        <mxCell id="PnXe8qApEqEV6tvW-mXD-11" value="" style="endArrow=none;html=1;rounded=0;exitX=0.994;exitY=0.901;exitDx=0;exitDy=0;exitPerimeter=0;entryX=0;entryY=0.897;entryDx=0;entryDy=0;entryPerimeter=0;" parent="1" source="PnXe8qApEqEV6tvW-mXD-1" target="PnXe8qApEqEV6tvW-mXD-3" edge="1">
          <mxGeometry width="50" height="50" relative="1" as="geometry">
            <mxPoint x="450" y="830" as="sourcePoint" />
            <mxPoint x="500" y="780" as="targetPoint" />
          </mxGeometry>
        </mxCell>
        <mxCell id="PnXe8qApEqEV6tvW-mXD-12" value="" style="endArrow=none;html=1;rounded=0;exitX=1;exitY=0.822;exitDx=0;exitDy=0;exitPerimeter=0;entryX=-0.004;entryY=0.825;entryDx=0;entryDy=0;entryPerimeter=0;" parent="1" source="PnXe8qApEqEV6tvW-mXD-1" target="PnXe8qApEqEV6tvW-mXD-3" edge="1">
          <mxGeometry width="50" height="50" relative="1" as="geometry">
            <mxPoint x="450" y="830" as="sourcePoint" />
            <mxPoint x="500" y="780" as="targetPoint" />
          </mxGeometry>
        </mxCell>
        <mxCell id="PnXe8qApEqEV6tvW-mXD-13" value="&lt;font style=&quot;font-size: 24px;&quot;&gt;. . .&lt;/font&gt;" style="text;strokeColor=none;align=center;fillColor=none;html=1;verticalAlign=middle;whiteSpace=wrap;rounded=0;flipH=0;flipV=1;direction=south;" parent="1" vertex="1">
          <mxGeometry x="500" y="790" width="55" height="25" as="geometry" />
        </mxCell>
        <mxCell id="PnXe8qApEqEV6tvW-mXD-14" value="64 bit BUS" style="text;strokeColor=none;align=center;fillColor=none;html=1;verticalAlign=middle;whiteSpace=wrap;rounded=0;" parent="1" vertex="1">
          <mxGeometry x="440" y="870" width="60" height="30" as="geometry" />
        </mxCell>
        <mxCell id="PnXe8qApEqEV6tvW-mXD-15" value="&lt;font style=&quot;font-size: 24px;&quot;&gt;ALU&lt;/font&gt;" style="rounded=1;whiteSpace=wrap;html=1;arcSize=6;" parent="1" vertex="1">
          <mxGeometry x="770" y="180" width="230" height="140" as="geometry" />
        </mxCell>
        <mxCell id="PnXe8qApEqEV6tvW-mXD-16" value="&lt;span style=&quot;font-size: 24px;&quot;&gt;UART&lt;/span&gt;" style="rounded=1;whiteSpace=wrap;html=1;" parent="1" vertex="1">
          <mxGeometry x="1330" y="180" width="160" height="50" as="geometry" />
        </mxCell>
        <mxCell id="PnXe8qApEqEV6tvW-mXD-18" value="&lt;span style=&quot;font-size: 24px;&quot;&gt;I2C&lt;/span&gt;" style="rounded=1;whiteSpace=wrap;html=1;" parent="1" vertex="1">
          <mxGeometry x="1330" y="320" width="160" height="50" as="geometry" />
        </mxCell>
        <mxCell id="PnXe8qApEqEV6tvW-mXD-19" value="&lt;span style=&quot;font-size: 24px;&quot;&gt;UART&lt;/span&gt;" style="rounded=1;whiteSpace=wrap;html=1;" parent="1" vertex="1">
          <mxGeometry x="1330" y="240" width="160" height="50" as="geometry" />
        </mxCell>
        <mxCell id="PnXe8qApEqEV6tvW-mXD-20" value="&lt;span style=&quot;font-size: 24px;&quot;&gt;I2C&lt;/span&gt;" style="rounded=1;whiteSpace=wrap;html=1;" parent="1" vertex="1">
          <mxGeometry x="1330" y="380" width="160" height="50" as="geometry" />
        </mxCell>
        <mxCell id="PnXe8qApEqEV6tvW-mXD-21" value="&lt;span style=&quot;font-size: 24px;&quot;&gt;SPI&lt;/span&gt;" style="rounded=1;whiteSpace=wrap;html=1;" parent="1" vertex="1">
          <mxGeometry x="1330" y="460" width="160" height="50" as="geometry" />
        </mxCell>
        <mxCell id="PnXe8qApEqEV6tvW-mXD-22" value="&lt;span style=&quot;font-size: 24px;&quot;&gt;SPI&lt;/span&gt;" style="rounded=1;whiteSpace=wrap;html=1;" parent="1" vertex="1">
          <mxGeometry x="1330" y="520" width="160" height="50" as="geometry" />
        </mxCell>
        <mxCell id="PnXe8qApEqEV6tvW-mXD-23" value="&lt;span style=&quot;font-size: 24px;&quot;&gt;GPIO&lt;/span&gt;" style="rounded=1;whiteSpace=wrap;html=1;arcSize=6;" parent="1" vertex="1">
          <mxGeometry x="1330" y="600" width="160" height="290" as="geometry" />
        </mxCell>
        <mxCell id="PnXe8qApEqEV6tvW-mXD-24" value="" style="rounded=0;whiteSpace=wrap;html=1;fillColor=#647687;strokeColor=none;fontColor=#ffffff;" parent="1" vertex="1">
          <mxGeometry x="1300" y="200" width="10" height="430" as="geometry" />
        </mxCell>
        <mxCell id="PnXe8qApEqEV6tvW-mXD-28" value="" style="rounded=0;whiteSpace=wrap;html=1;fillColor=#647687;strokeColor=none;fontColor=#ffffff;" parent="1" vertex="1">
          <mxGeometry x="1300" y="200" width="30" height="10" as="geometry" />
        </mxCell>
        <mxCell id="PnXe8qApEqEV6tvW-mXD-30" value="" style="rounded=0;whiteSpace=wrap;html=1;fillColor=#647687;strokeColor=none;fontColor=#ffffff;" parent="1" vertex="1">
          <mxGeometry x="1300" y="260" width="30" height="10" as="geometry" />
        </mxCell>
        <mxCell id="PnXe8qApEqEV6tvW-mXD-31" value="" style="rounded=0;whiteSpace=wrap;html=1;fillColor=#647687;strokeColor=none;fontColor=#ffffff;" parent="1" vertex="1">
          <mxGeometry x="1300" y="340" width="30" height="10" as="geometry" />
        </mxCell>
        <mxCell id="PnXe8qApEqEV6tvW-mXD-32" value="" style="rounded=0;whiteSpace=wrap;html=1;fillColor=#647687;strokeColor=none;fontColor=#ffffff;" parent="1" vertex="1">
          <mxGeometry x="1300" y="400" width="30" height="10" as="geometry" />
        </mxCell>
        <mxCell id="PnXe8qApEqEV6tvW-mXD-33" value="" style="rounded=0;whiteSpace=wrap;html=1;fillColor=#647687;strokeColor=none;fontColor=#ffffff;" parent="1" vertex="1">
          <mxGeometry x="1300" y="480" width="30" height="10" as="geometry" />
        </mxCell>
        <mxCell id="PnXe8qApEqEV6tvW-mXD-34" value="" style="rounded=0;whiteSpace=wrap;html=1;fillColor=#647687;strokeColor=none;fontColor=#ffffff;" parent="1" vertex="1">
          <mxGeometry x="1300" y="540" width="30" height="10" as="geometry" />
        </mxCell>
        <mxCell id="PnXe8qApEqEV6tvW-mXD-35" value="" style="rounded=0;whiteSpace=wrap;html=1;fillColor=#647687;strokeColor=none;fontColor=#ffffff;" parent="1" vertex="1">
          <mxGeometry x="1300" y="620" width="30" height="10" as="geometry" />
        </mxCell>
        <mxCell id="PnXe8qApEqEV6tvW-mXD-37" value="&lt;font style=&quot;font-size: 24px;&quot;&gt;DECODER&lt;/font&gt;" style="rounded=1;whiteSpace=wrap;html=1;arcSize=6;" parent="1" vertex="1">
          <mxGeometry x="770" y="690" width="240" height="90" as="geometry" />
        </mxCell>
        <mxCell id="PnXe8qApEqEV6tvW-mXD-38" value="&lt;font style=&quot;font-size: 24px;&quot;&gt;EXECUTE&lt;/font&gt;" style="rounded=1;whiteSpace=wrap;html=1;arcSize=6;" parent="1" vertex="1">
          <mxGeometry x="770" y="520" width="240" height="160" as="geometry" />
        </mxCell>
        <mxCell id="PnXe8qApEqEV6tvW-mXD-39" value="&lt;font style=&quot;font-size: 24px;&quot;&gt;MICRO-FLASH&amp;nbsp;&lt;br&gt;MEMORY&lt;br&gt;&lt;/font&gt;" style="rounded=1;whiteSpace=wrap;html=1;arcSize=6;" parent="1" vertex="1">
          <mxGeometry x="1020" y="520" width="120" height="260" as="geometry" />
        </mxCell>
        <mxCell id="PnXe8qApEqEV6tvW-mXD-74" value="" style="group" parent="1" vertex="1" connectable="0">
          <mxGeometry x="770" y="340" width="370" height="170" as="geometry" />
        </mxCell>
        <mxCell id="PnXe8qApEqEV6tvW-mXD-40" value="" style="rounded=1;whiteSpace=wrap;html=1;arcSize=6;" parent="PnXe8qApEqEV6tvW-mXD-74" vertex="1">
          <mxGeometry width="369.99999999999994" height="170" as="geometry" />
        </mxCell>
        <mxCell id="PnXe8qApEqEV6tvW-mXD-41" value="&lt;font style=&quot;font-size: 14px;&quot;&gt;R0&lt;/font&gt;" style="rounded=1;whiteSpace=wrap;html=1;arcSize=12;" parent="PnXe8qApEqEV6tvW-mXD-74" vertex="1">
          <mxGeometry x="8.604651162790697" y="10" width="34.41860465116279" height="29.999999999999996" as="geometry" />
        </mxCell>
        <mxCell id="PnXe8qApEqEV6tvW-mXD-42" value="&lt;font style=&quot;font-size: 14px;&quot;&gt;R1&lt;/font&gt;" style="rounded=1;whiteSpace=wrap;html=1;arcSize=12;" parent="PnXe8qApEqEV6tvW-mXD-74" vertex="1">
          <mxGeometry x="51.62790697674418" y="10" width="34.41860465116279" height="29.999999999999996" as="geometry" />
        </mxCell>
        <mxCell id="PnXe8qApEqEV6tvW-mXD-43" value="&lt;font style=&quot;font-size: 14px;&quot;&gt;R2&lt;/font&gt;" style="rounded=1;whiteSpace=wrap;html=1;arcSize=12;" parent="PnXe8qApEqEV6tvW-mXD-74" vertex="1">
          <mxGeometry x="94.65116279069765" y="10" width="34.41860465116279" height="29.999999999999996" as="geometry" />
        </mxCell>
        <mxCell id="PnXe8qApEqEV6tvW-mXD-44" value="&lt;font style=&quot;font-size: 14px;&quot;&gt;R3&lt;/font&gt;" style="rounded=1;whiteSpace=wrap;html=1;arcSize=12;" parent="PnXe8qApEqEV6tvW-mXD-74" vertex="1">
          <mxGeometry x="137.67441860465115" y="10" width="34.41860465116279" height="29.999999999999996" as="geometry" />
        </mxCell>
        <mxCell id="PnXe8qApEqEV6tvW-mXD-45" value="&lt;font style=&quot;font-size: 14px;&quot;&gt;R4&lt;/font&gt;" style="rounded=1;whiteSpace=wrap;html=1;arcSize=12;" parent="PnXe8qApEqEV6tvW-mXD-74" vertex="1">
          <mxGeometry x="180.6976744186046" y="10" width="34.41860465116279" height="29.999999999999996" as="geometry" />
        </mxCell>
        <mxCell id="PnXe8qApEqEV6tvW-mXD-46" value="&lt;font style=&quot;font-size: 14px;&quot;&gt;R5&lt;/font&gt;" style="rounded=1;whiteSpace=wrap;html=1;arcSize=12;" parent="PnXe8qApEqEV6tvW-mXD-74" vertex="1">
          <mxGeometry x="223.72093023255812" y="10" width="34.41860465116279" height="29.999999999999996" as="geometry" />
        </mxCell>
        <mxCell id="PnXe8qApEqEV6tvW-mXD-47" value="&lt;font style=&quot;font-size: 14px;&quot;&gt;R6&lt;/font&gt;" style="rounded=1;whiteSpace=wrap;html=1;arcSize=12;" parent="PnXe8qApEqEV6tvW-mXD-74" vertex="1">
          <mxGeometry x="266.7441860465116" y="10" width="34.41860465116279" height="29.999999999999996" as="geometry" />
        </mxCell>
        <mxCell id="PnXe8qApEqEV6tvW-mXD-48" value="&lt;font style=&quot;font-size: 14px;&quot;&gt;R7&lt;/font&gt;" style="rounded=1;whiteSpace=wrap;html=1;arcSize=12;" parent="PnXe8qApEqEV6tvW-mXD-74" vertex="1">
          <mxGeometry x="8.604651162790697" y="50" width="34.41860465116279" height="29.999999999999996" as="geometry" />
        </mxCell>
        <mxCell id="PnXe8qApEqEV6tvW-mXD-49" value="&lt;font style=&quot;font-size: 14px;&quot;&gt;R8&lt;/font&gt;" style="rounded=1;whiteSpace=wrap;html=1;arcSize=12;" parent="PnXe8qApEqEV6tvW-mXD-74" vertex="1">
          <mxGeometry x="51.62790697674418" y="50" width="34.41860465116279" height="29.999999999999996" as="geometry" />
        </mxCell>
        <mxCell id="PnXe8qApEqEV6tvW-mXD-50" value="&lt;font style=&quot;font-size: 14px;&quot;&gt;R9&lt;/font&gt;" style="rounded=1;whiteSpace=wrap;html=1;arcSize=12;" parent="PnXe8qApEqEV6tvW-mXD-74" vertex="1">
          <mxGeometry x="94.65116279069765" y="50" width="34.41860465116279" height="29.999999999999996" as="geometry" />
        </mxCell>
        <mxCell id="PnXe8qApEqEV6tvW-mXD-51" value="&lt;font style=&quot;font-size: 14px;&quot;&gt;R10&lt;/font&gt;" style="rounded=1;whiteSpace=wrap;html=1;arcSize=12;" parent="PnXe8qApEqEV6tvW-mXD-74" vertex="1">
          <mxGeometry x="137.67441860465115" y="50" width="34.41860465116279" height="29.999999999999996" as="geometry" />
        </mxCell>
        <mxCell id="PnXe8qApEqEV6tvW-mXD-52" value="&lt;font style=&quot;font-size: 14px;&quot;&gt;R11&lt;/font&gt;" style="rounded=1;whiteSpace=wrap;html=1;arcSize=12;" parent="PnXe8qApEqEV6tvW-mXD-74" vertex="1">
          <mxGeometry x="180.6976744186046" y="50" width="34.41860465116279" height="29.999999999999996" as="geometry" />
        </mxCell>
        <mxCell id="PnXe8qApEqEV6tvW-mXD-53" value="&lt;font style=&quot;font-size: 14px;&quot;&gt;R12&lt;/font&gt;" style="rounded=1;whiteSpace=wrap;html=1;arcSize=12;" parent="PnXe8qApEqEV6tvW-mXD-74" vertex="1">
          <mxGeometry x="223.72093023255812" y="50" width="34.41860465116279" height="29.999999999999996" as="geometry" />
        </mxCell>
        <mxCell id="PnXe8qApEqEV6tvW-mXD-54" value="&lt;font style=&quot;font-size: 14px;&quot;&gt;R13&lt;/font&gt;" style="rounded=1;whiteSpace=wrap;html=1;arcSize=12;" parent="PnXe8qApEqEV6tvW-mXD-74" vertex="1">
          <mxGeometry x="266.7441860465116" y="50" width="34.41860465116279" height="29.999999999999996" as="geometry" />
        </mxCell>
        <mxCell id="PnXe8qApEqEV6tvW-mXD-55" value="&lt;font style=&quot;font-size: 14px;&quot;&gt;R14&lt;/font&gt;" style="rounded=1;whiteSpace=wrap;html=1;arcSize=12;" parent="PnXe8qApEqEV6tvW-mXD-74" vertex="1">
          <mxGeometry x="8.604651162790697" y="89.99999999999999" width="34.41860465116279" height="29.999999999999996" as="geometry" />
        </mxCell>
        <mxCell id="PnXe8qApEqEV6tvW-mXD-56" value="&lt;font style=&quot;font-size: 14px;&quot;&gt;R15&lt;/font&gt;" style="rounded=1;whiteSpace=wrap;html=1;arcSize=12;" parent="PnXe8qApEqEV6tvW-mXD-74" vertex="1">
          <mxGeometry x="51.62790697674418" y="89.99999999999999" width="34.41860465116279" height="29.999999999999996" as="geometry" />
        </mxCell>
        <mxCell id="PnXe8qApEqEV6tvW-mXD-57" value="&lt;font style=&quot;font-size: 14px;&quot;&gt;R16&lt;/font&gt;" style="rounded=1;whiteSpace=wrap;html=1;arcSize=12;" parent="PnXe8qApEqEV6tvW-mXD-74" vertex="1">
          <mxGeometry x="94.65116279069765" y="89.99999999999999" width="34.41860465116279" height="29.999999999999996" as="geometry" />
        </mxCell>
        <mxCell id="PnXe8qApEqEV6tvW-mXD-58" value="&lt;font style=&quot;font-size: 14px;&quot;&gt;R17&lt;/font&gt;" style="rounded=1;whiteSpace=wrap;html=1;arcSize=12;" parent="PnXe8qApEqEV6tvW-mXD-74" vertex="1">
          <mxGeometry x="137.67441860465115" y="89.99999999999999" width="34.41860465116279" height="29.999999999999996" as="geometry" />
        </mxCell>
        <mxCell id="PnXe8qApEqEV6tvW-mXD-59" value="&lt;font style=&quot;font-size: 14px;&quot;&gt;R18&lt;/font&gt;" style="rounded=1;whiteSpace=wrap;html=1;arcSize=12;" parent="PnXe8qApEqEV6tvW-mXD-74" vertex="1">
          <mxGeometry x="180.6976744186046" y="89.99999999999999" width="34.41860465116279" height="29.999999999999996" as="geometry" />
        </mxCell>
        <mxCell id="PnXe8qApEqEV6tvW-mXD-60" value="&lt;font style=&quot;font-size: 14px;&quot;&gt;R19&lt;/font&gt;" style="rounded=1;whiteSpace=wrap;html=1;arcSize=12;" parent="PnXe8qApEqEV6tvW-mXD-74" vertex="1">
          <mxGeometry x="223.72093023255812" y="89.99999999999999" width="34.41860465116279" height="29.999999999999996" as="geometry" />
        </mxCell>
        <mxCell id="PnXe8qApEqEV6tvW-mXD-61" value="&lt;font style=&quot;font-size: 14px;&quot;&gt;R20&lt;/font&gt;" style="rounded=1;whiteSpace=wrap;html=1;arcSize=12;" parent="PnXe8qApEqEV6tvW-mXD-74" vertex="1">
          <mxGeometry x="266.7441860465116" y="89.99999999999999" width="34.41860465116279" height="29.999999999999996" as="geometry" />
        </mxCell>
        <mxCell id="PnXe8qApEqEV6tvW-mXD-62" value="&lt;font style=&quot;font-size: 14px;&quot;&gt;R21&lt;/font&gt;" style="rounded=1;whiteSpace=wrap;html=1;arcSize=12;" parent="PnXe8qApEqEV6tvW-mXD-74" vertex="1">
          <mxGeometry x="8.604651162790697" y="130" width="34.41860465116279" height="29.999999999999996" as="geometry" />
        </mxCell>
        <mxCell id="PnXe8qApEqEV6tvW-mXD-63" value="&lt;font style=&quot;font-size: 14px;&quot;&gt;R22&lt;/font&gt;" style="rounded=1;whiteSpace=wrap;html=1;arcSize=12;" parent="PnXe8qApEqEV6tvW-mXD-74" vertex="1">
          <mxGeometry x="51.62790697674418" y="130" width="34.41860465116279" height="29.999999999999996" as="geometry" />
        </mxCell>
        <mxCell id="PnXe8qApEqEV6tvW-mXD-64" value="&lt;font style=&quot;font-size: 14px;&quot;&gt;R23&lt;/font&gt;" style="rounded=1;whiteSpace=wrap;html=1;arcSize=12;" parent="PnXe8qApEqEV6tvW-mXD-74" vertex="1">
          <mxGeometry x="94.65116279069765" y="130" width="34.41860465116279" height="29.999999999999996" as="geometry" />
        </mxCell>
        <mxCell id="PnXe8qApEqEV6tvW-mXD-65" value="&lt;font style=&quot;font-size: 14px;&quot;&gt;R24&lt;/font&gt;" style="rounded=1;whiteSpace=wrap;html=1;arcSize=12;" parent="PnXe8qApEqEV6tvW-mXD-74" vertex="1">
          <mxGeometry x="137.67441860465115" y="130" width="34.41860465116279" height="29.999999999999996" as="geometry" />
        </mxCell>
        <mxCell id="PnXe8qApEqEV6tvW-mXD-66" value="&lt;font style=&quot;font-size: 14px;&quot;&gt;R25&lt;/font&gt;" style="rounded=1;whiteSpace=wrap;html=1;arcSize=12;" parent="PnXe8qApEqEV6tvW-mXD-74" vertex="1">
          <mxGeometry x="180.6976744186046" y="130" width="34.41860465116279" height="29.999999999999996" as="geometry" />
        </mxCell>
        <mxCell id="PnXe8qApEqEV6tvW-mXD-67" value="&lt;font style=&quot;font-size: 14px;&quot;&gt;R26&lt;/font&gt;" style="rounded=1;whiteSpace=wrap;html=1;arcSize=12;" parent="PnXe8qApEqEV6tvW-mXD-74" vertex="1">
          <mxGeometry x="223.72093023255812" y="130" width="34.41860465116279" height="29.999999999999996" as="geometry" />
        </mxCell>
        <mxCell id="PnXe8qApEqEV6tvW-mXD-68" value="&lt;font style=&quot;font-size: 14px;&quot;&gt;R27&lt;/font&gt;" style="rounded=1;whiteSpace=wrap;html=1;arcSize=12;" parent="PnXe8qApEqEV6tvW-mXD-74" vertex="1">
          <mxGeometry x="266.7441860465116" y="130" width="34.41860465116279" height="29.999999999999996" as="geometry" />
        </mxCell>
        <mxCell id="PnXe8qApEqEV6tvW-mXD-69" value="&lt;span style=&quot;font-size: 14px;&quot;&gt;IP&lt;/span&gt;" style="rounded=1;whiteSpace=wrap;html=1;arcSize=12;" parent="PnXe8qApEqEV6tvW-mXD-74" vertex="1">
          <mxGeometry x="326.9767441860465" y="130" width="34.41860465116279" height="29.999999999999996" as="geometry" />
        </mxCell>
        <mxCell id="PnXe8qApEqEV6tvW-mXD-70" value="&lt;font style=&quot;font-size: 8px;&quot;&gt;FLAGS&lt;/font&gt;" style="rounded=1;whiteSpace=wrap;html=1;arcSize=12;" parent="PnXe8qApEqEV6tvW-mXD-74" vertex="1">
          <mxGeometry x="326.9767441860465" y="10" width="34.41860465116279" height="29.999999999999996" as="geometry" />
        </mxCell>
        <mxCell id="PnXe8qApEqEV6tvW-mXD-72" value="&lt;font style=&quot;font-size: 10px;&quot;&gt;CTRL&lt;/font&gt;" style="rounded=1;whiteSpace=wrap;html=1;arcSize=12;" parent="PnXe8qApEqEV6tvW-mXD-74" vertex="1">
          <mxGeometry x="326.9767441860465" y="89.99999999999999" width="34.41860465116279" height="29.999999999999996" as="geometry" />
        </mxCell>
        <mxCell id="PnXe8qApEqEV6tvW-mXD-73" value="&lt;span style=&quot;font-size: 14px;&quot;&gt;CPU&lt;/span&gt;" style="rounded=1;whiteSpace=wrap;html=1;arcSize=12;" parent="PnXe8qApEqEV6tvW-mXD-74" vertex="1">
          <mxGeometry x="326.9767441860465" y="50" width="34.41860465116279" height="29.999999999999996" as="geometry" />
        </mxCell>
        <mxCell id="PnXe8qApEqEV6tvW-mXD-75" value="&lt;font style=&quot;font-size: 24px;&quot;&gt;EXP0&lt;/font&gt;" style="rounded=1;whiteSpace=wrap;html=1;arcSize=6;" parent="1" vertex="1">
          <mxGeometry x="1010" y="180" width="130" height="140" as="geometry" />
        </mxCell>
        <mxCell id="PnXe8qApEqEV6tvW-mXD-76" value="&lt;font style=&quot;font-size: 24px;&quot;&gt;EXP1&lt;/font&gt;" style="rounded=1;whiteSpace=wrap;html=1;arcSize=6;" parent="1" vertex="1">
          <mxGeometry x="1150" y="180" width="130" height="140" as="geometry" />
        </mxCell>
        <mxCell id="PnXe8qApEqEV6tvW-mXD-77" value="&lt;font style=&quot;font-size: 24px;&quot;&gt;EXP2&lt;/font&gt;" style="rounded=1;whiteSpace=wrap;html=1;arcSize=6;" parent="1" vertex="1">
          <mxGeometry x="1150" y="340" width="130" height="140" as="geometry" />
        </mxCell>
        <mxCell id="PnXe8qApEqEV6tvW-mXD-79" value="&lt;font style=&quot;font-size: 24px;&quot;&gt;EXP3&lt;/font&gt;" style="rounded=1;whiteSpace=wrap;html=1;arcSize=6;" parent="1" vertex="1">
          <mxGeometry x="1160" y="495" width="130" height="285" as="geometry" />
        </mxCell>
        <mxCell id="PnXe8qApEqEV6tvW-mXD-80" value="&lt;font style=&quot;font-size: 24px;&quot;&gt;EXP4&lt;/font&gt;" style="rounded=1;whiteSpace=wrap;html=1;arcSize=6;" parent="1" vertex="1">
          <mxGeometry x="770" y="800" width="520" height="90" as="geometry" />
        </mxCell>
        <mxCell id="PnXe8qApEqEV6tvW-mXD-773" value="&lt;span style=&quot;font-size: 24px;&quot;&gt;UART&lt;/span&gt;" style="rounded=1;whiteSpace=wrap;html=1;" parent="1" vertex="1">
          <mxGeometry x="770" y="1450" width="160" height="50" as="geometry" />
        </mxCell>
        <mxCell id="PnXe8qApEqEV6tvW-mXD-774" value="&lt;span style=&quot;font-size: 24px;&quot;&gt;I2C&lt;/span&gt;" style="rounded=1;whiteSpace=wrap;html=1;" parent="1" vertex="1">
          <mxGeometry x="770" y="1590" width="160" height="50" as="geometry" />
        </mxCell>
        <mxCell id="PnXe8qApEqEV6tvW-mXD-775" value="&lt;span style=&quot;font-size: 24px;&quot;&gt;UART&lt;/span&gt;" style="rounded=1;whiteSpace=wrap;html=1;" parent="1" vertex="1">
          <mxGeometry x="770" y="1510" width="160" height="50" as="geometry" />
        </mxCell>
        <mxCell id="PnXe8qApEqEV6tvW-mXD-776" value="&lt;span style=&quot;font-size: 24px;&quot;&gt;I2C&lt;/span&gt;" style="rounded=1;whiteSpace=wrap;html=1;" parent="1" vertex="1">
          <mxGeometry x="770" y="1650" width="160" height="50" as="geometry" />
        </mxCell>
        <mxCell id="PnXe8qApEqEV6tvW-mXD-777" value="&lt;span style=&quot;font-size: 24px;&quot;&gt;SPI&lt;/span&gt;" style="rounded=1;whiteSpace=wrap;html=1;" parent="1" vertex="1">
          <mxGeometry x="770" y="1730" width="160" height="50" as="geometry" />
        </mxCell>
        <mxCell id="PnXe8qApEqEV6tvW-mXD-778" value="&lt;span style=&quot;font-size: 24px;&quot;&gt;SPI&lt;/span&gt;" style="rounded=1;whiteSpace=wrap;html=1;" parent="1" vertex="1">
          <mxGeometry x="770" y="1790" width="160" height="50" as="geometry" />
        </mxCell>
        <mxCell id="PnXe8qApEqEV6tvW-mXD-779" value="&lt;span style=&quot;font-size: 24px;&quot;&gt;GPIO&lt;/span&gt;" style="rounded=1;whiteSpace=wrap;html=1;arcSize=6;" parent="1" vertex="1">
          <mxGeometry x="770" y="1870" width="160" height="290" as="geometry" />
        </mxCell>
        <mxCell id="PnXe8qApEqEV6tvW-mXD-780" value="" style="rounded=0;whiteSpace=wrap;html=1;fillColor=#647687;strokeColor=none;fontColor=#ffffff;" parent="1" vertex="1">
          <mxGeometry x="740" y="1470" width="10" height="430" as="geometry" />
        </mxCell>
        <mxCell id="PnXe8qApEqEV6tvW-mXD-781" value="" style="rounded=0;whiteSpace=wrap;html=1;fillColor=#647687;strokeColor=none;fontColor=#ffffff;" parent="1" vertex="1">
          <mxGeometry x="740" y="1470" width="30" height="10" as="geometry" />
        </mxCell>
        <mxCell id="PnXe8qApEqEV6tvW-mXD-782" value="" style="rounded=0;whiteSpace=wrap;html=1;fillColor=#647687;strokeColor=none;fontColor=#ffffff;" parent="1" vertex="1">
          <mxGeometry x="740" y="1530" width="30" height="10" as="geometry" />
        </mxCell>
        <mxCell id="PnXe8qApEqEV6tvW-mXD-783" value="" style="rounded=0;whiteSpace=wrap;html=1;fillColor=#647687;strokeColor=none;fontColor=#ffffff;" parent="1" vertex="1">
          <mxGeometry x="740" y="1610" width="30" height="10" as="geometry" />
        </mxCell>
        <mxCell id="PnXe8qApEqEV6tvW-mXD-784" value="" style="rounded=0;whiteSpace=wrap;html=1;fillColor=#647687;strokeColor=none;fontColor=#ffffff;" parent="1" vertex="1">
          <mxGeometry x="740" y="1670" width="30" height="10" as="geometry" />
        </mxCell>
        <mxCell id="PnXe8qApEqEV6tvW-mXD-785" value="" style="rounded=0;whiteSpace=wrap;html=1;fillColor=#647687;strokeColor=none;fontColor=#ffffff;" parent="1" vertex="1">
          <mxGeometry x="740" y="1750" width="30" height="10" as="geometry" />
        </mxCell>
        <mxCell id="PnXe8qApEqEV6tvW-mXD-786" value="" style="rounded=0;whiteSpace=wrap;html=1;fillColor=#647687;strokeColor=none;fontColor=#ffffff;" parent="1" vertex="1">
          <mxGeometry x="740" y="1810" width="30" height="10" as="geometry" />
        </mxCell>
        <mxCell id="PnXe8qApEqEV6tvW-mXD-787" value="" style="rounded=0;whiteSpace=wrap;html=1;fillColor=#647687;strokeColor=none;fontColor=#ffffff;" parent="1" vertex="1">
          <mxGeometry x="740" y="1890" width="30" height="10" as="geometry" />
        </mxCell>
        <mxCell id="qlpNwuft5wFHGggAAQwj-3" value="" style="group" vertex="1" connectable="0" parent="1">
          <mxGeometry x="2080" y="1400" width="650" height="650" as="geometry" />
        </mxCell>
        <mxCell id="PnXe8qApEqEV6tvW-mXD-771" value="" style="whiteSpace=wrap;html=1;aspect=fixed;container=0;" parent="qlpNwuft5wFHGggAAQwj-3" vertex="1">
          <mxGeometry width="650" height="650" as="geometry" />
        </mxCell>
        <mxCell id="PnXe8qApEqEV6tvW-mXD-772" value="&lt;font style=&quot;font-size: 24px;&quot;&gt;ALU&lt;/font&gt;" style="rounded=1;whiteSpace=wrap;html=1;arcSize=6;container=0;" parent="qlpNwuft5wFHGggAAQwj-3" vertex="1">
          <mxGeometry x="40" y="10" width="260" height="120" as="geometry" />
        </mxCell>
        <mxCell id="PnXe8qApEqEV6tvW-mXD-788" value="&lt;font style=&quot;font-size: 24px;&quot;&gt;DECODER&lt;/font&gt;" style="rounded=1;whiteSpace=wrap;html=1;arcSize=6;container=0;" parent="qlpNwuft5wFHGggAAQwj-3" vertex="1">
          <mxGeometry x="40" y="540" width="240" height="60" as="geometry" />
        </mxCell>
        <mxCell id="PnXe8qApEqEV6tvW-mXD-789" value="&lt;font style=&quot;font-size: 24px;&quot;&gt;EXECUTE&lt;/font&gt;" style="rounded=1;whiteSpace=wrap;html=1;arcSize=2;container=0;imageHeight=24;" parent="qlpNwuft5wFHGggAAQwj-3" vertex="1">
          <mxGeometry x="40" y="320" width="240" height="210" as="geometry" />
        </mxCell>
        <mxCell id="PnXe8qApEqEV6tvW-mXD-790" value="&lt;font style=&quot;font-size: 24px;&quot;&gt;MICRO-FLASH&amp;nbsp;&lt;br&gt;MEMORY&lt;br&gt;&lt;/font&gt;" style="rounded=1;whiteSpace=wrap;html=1;arcSize=5;container=0;" parent="qlpNwuft5wFHGggAAQwj-3" vertex="1">
          <mxGeometry x="290" y="380" width="120" height="220" as="geometry" />
        </mxCell>
        <mxCell id="PnXe8qApEqEV6tvW-mXD-832" value="&lt;font style=&quot;font-size: 14px;&quot;&gt;MICROCODE TABLE&lt;/font&gt;" style="rounded=1;whiteSpace=wrap;html=1;arcSize=10;container=0;" parent="qlpNwuft5wFHGggAAQwj-3" vertex="1">
          <mxGeometry x="290" y="320" width="120" height="50" as="geometry" />
        </mxCell>
        <mxCell id="PnXe8qApEqEV6tvW-mXD-835" value="" style="group" parent="qlpNwuft5wFHGggAAQwj-3" vertex="1" connectable="0">
          <mxGeometry x="40" y="140" width="370" height="170" as="geometry" />
        </mxCell>
        <mxCell id="PnXe8qApEqEV6tvW-mXD-792" value="" style="rounded=1;whiteSpace=wrap;html=1;arcSize=6;container=0;" parent="PnXe8qApEqEV6tvW-mXD-835" vertex="1">
          <mxGeometry width="369.99999999999994" height="170" as="geometry" />
        </mxCell>
        <mxCell id="PnXe8qApEqEV6tvW-mXD-793" value="&lt;font style=&quot;font-size: 14px;&quot;&gt;R0&lt;/font&gt;" style="rounded=1;whiteSpace=wrap;html=1;arcSize=12;container=0;" parent="PnXe8qApEqEV6tvW-mXD-835" vertex="1">
          <mxGeometry x="8.60465116279056" y="10" width="34.41860465116279" height="29.999999999999996" as="geometry" />
        </mxCell>
        <mxCell id="PnXe8qApEqEV6tvW-mXD-794" value="&lt;font style=&quot;font-size: 14px;&quot;&gt;R1&lt;/font&gt;" style="rounded=1;whiteSpace=wrap;html=1;arcSize=12;container=0;" parent="PnXe8qApEqEV6tvW-mXD-835" vertex="1">
          <mxGeometry x="51.62790697674427" y="10" width="34.41860465116279" height="29.999999999999996" as="geometry" />
        </mxCell>
        <mxCell id="PnXe8qApEqEV6tvW-mXD-795" value="&lt;font style=&quot;font-size: 14px;&quot;&gt;R2&lt;/font&gt;" style="rounded=1;whiteSpace=wrap;html=1;arcSize=12;container=0;" parent="PnXe8qApEqEV6tvW-mXD-835" vertex="1">
          <mxGeometry x="94.65116279069753" y="10" width="34.41860465116279" height="29.999999999999996" as="geometry" />
        </mxCell>
        <mxCell id="PnXe8qApEqEV6tvW-mXD-796" value="&lt;font style=&quot;font-size: 14px;&quot;&gt;R3&lt;/font&gt;" style="rounded=1;whiteSpace=wrap;html=1;arcSize=12;container=0;" parent="PnXe8qApEqEV6tvW-mXD-835" vertex="1">
          <mxGeometry x="137.67441860465124" y="10" width="34.41860465116279" height="29.999999999999996" as="geometry" />
        </mxCell>
        <mxCell id="PnXe8qApEqEV6tvW-mXD-797" value="&lt;font style=&quot;font-size: 14px;&quot;&gt;R4&lt;/font&gt;" style="rounded=1;whiteSpace=wrap;html=1;arcSize=12;container=0;" parent="PnXe8qApEqEV6tvW-mXD-835" vertex="1">
          <mxGeometry x="180.6976744186045" y="10" width="34.41860465116279" height="29.999999999999996" as="geometry" />
        </mxCell>
        <mxCell id="PnXe8qApEqEV6tvW-mXD-798" value="&lt;font style=&quot;font-size: 14px;&quot;&gt;R5&lt;/font&gt;" style="rounded=1;whiteSpace=wrap;html=1;arcSize=12;container=0;" parent="PnXe8qApEqEV6tvW-mXD-835" vertex="1">
          <mxGeometry x="223.7209302325582" y="10" width="34.41860465116279" height="29.999999999999996" as="geometry" />
        </mxCell>
        <mxCell id="PnXe8qApEqEV6tvW-mXD-799" value="&lt;font style=&quot;font-size: 14px;&quot;&gt;R6&lt;/font&gt;" style="rounded=1;whiteSpace=wrap;html=1;arcSize=12;container=0;" parent="PnXe8qApEqEV6tvW-mXD-835" vertex="1">
          <mxGeometry x="266.74418604651146" y="10" width="34.41860465116279" height="29.999999999999996" as="geometry" />
        </mxCell>
        <mxCell id="PnXe8qApEqEV6tvW-mXD-800" value="&lt;font style=&quot;font-size: 14px;&quot;&gt;R7&lt;/font&gt;" style="rounded=1;whiteSpace=wrap;html=1;arcSize=12;container=0;" parent="PnXe8qApEqEV6tvW-mXD-835" vertex="1">
          <mxGeometry x="8.60465116279056" y="50" width="34.41860465116279" height="29.999999999999996" as="geometry" />
        </mxCell>
        <mxCell id="PnXe8qApEqEV6tvW-mXD-801" value="&lt;font style=&quot;font-size: 14px;&quot;&gt;R8&lt;/font&gt;" style="rounded=1;whiteSpace=wrap;html=1;arcSize=12;container=0;" parent="PnXe8qApEqEV6tvW-mXD-835" vertex="1">
          <mxGeometry x="51.62790697674427" y="50" width="34.41860465116279" height="29.999999999999996" as="geometry" />
        </mxCell>
        <mxCell id="PnXe8qApEqEV6tvW-mXD-802" value="&lt;font style=&quot;font-size: 14px;&quot;&gt;R9&lt;/font&gt;" style="rounded=1;whiteSpace=wrap;html=1;arcSize=12;container=0;" parent="PnXe8qApEqEV6tvW-mXD-835" vertex="1">
          <mxGeometry x="94.65116279069753" y="50" width="34.41860465116279" height="29.999999999999996" as="geometry" />
        </mxCell>
        <mxCell id="PnXe8qApEqEV6tvW-mXD-803" value="&lt;font style=&quot;font-size: 14px;&quot;&gt;R10&lt;/font&gt;" style="rounded=1;whiteSpace=wrap;html=1;arcSize=12;container=0;" parent="PnXe8qApEqEV6tvW-mXD-835" vertex="1">
          <mxGeometry x="137.67441860465124" y="50" width="34.41860465116279" height="29.999999999999996" as="geometry" />
        </mxCell>
        <mxCell id="PnXe8qApEqEV6tvW-mXD-804" value="&lt;font style=&quot;font-size: 14px;&quot;&gt;R11&lt;/font&gt;" style="rounded=1;whiteSpace=wrap;html=1;arcSize=12;container=0;" parent="PnXe8qApEqEV6tvW-mXD-835" vertex="1">
          <mxGeometry x="180.6976744186045" y="50" width="34.41860465116279" height="29.999999999999996" as="geometry" />
        </mxCell>
        <mxCell id="PnXe8qApEqEV6tvW-mXD-805" value="&lt;font style=&quot;font-size: 14px;&quot;&gt;R12&lt;/font&gt;" style="rounded=1;whiteSpace=wrap;html=1;arcSize=12;container=0;" parent="PnXe8qApEqEV6tvW-mXD-835" vertex="1">
          <mxGeometry x="223.7209302325582" y="50" width="34.41860465116279" height="29.999999999999996" as="geometry" />
        </mxCell>
        <mxCell id="PnXe8qApEqEV6tvW-mXD-806" value="&lt;font style=&quot;font-size: 14px;&quot;&gt;R13&lt;/font&gt;" style="rounded=1;whiteSpace=wrap;html=1;arcSize=12;container=0;" parent="PnXe8qApEqEV6tvW-mXD-835" vertex="1">
          <mxGeometry x="266.74418604651146" y="50" width="34.41860465116279" height="29.999999999999996" as="geometry" />
        </mxCell>
        <mxCell id="PnXe8qApEqEV6tvW-mXD-807" value="&lt;font style=&quot;font-size: 14px;&quot;&gt;R14&lt;/font&gt;" style="rounded=1;whiteSpace=wrap;html=1;arcSize=12;container=0;" parent="PnXe8qApEqEV6tvW-mXD-835" vertex="1">
          <mxGeometry x="8.60465116279056" y="90" width="34.41860465116279" height="29.999999999999996" as="geometry" />
        </mxCell>
        <mxCell id="PnXe8qApEqEV6tvW-mXD-808" value="&lt;font style=&quot;font-size: 14px;&quot;&gt;R15&lt;/font&gt;" style="rounded=1;whiteSpace=wrap;html=1;arcSize=12;container=0;" parent="PnXe8qApEqEV6tvW-mXD-835" vertex="1">
          <mxGeometry x="51.62790697674427" y="90" width="34.41860465116279" height="29.999999999999996" as="geometry" />
        </mxCell>
        <mxCell id="PnXe8qApEqEV6tvW-mXD-809" value="&lt;font style=&quot;font-size: 14px;&quot;&gt;R16&lt;/font&gt;" style="rounded=1;whiteSpace=wrap;html=1;arcSize=12;container=0;" parent="PnXe8qApEqEV6tvW-mXD-835" vertex="1">
          <mxGeometry x="94.65116279069753" y="90" width="34.41860465116279" height="29.999999999999996" as="geometry" />
        </mxCell>
        <mxCell id="PnXe8qApEqEV6tvW-mXD-810" value="&lt;font style=&quot;font-size: 14px;&quot;&gt;R17&lt;/font&gt;" style="rounded=1;whiteSpace=wrap;html=1;arcSize=12;container=0;" parent="PnXe8qApEqEV6tvW-mXD-835" vertex="1">
          <mxGeometry x="137.67441860465124" y="90" width="34.41860465116279" height="29.999999999999996" as="geometry" />
        </mxCell>
        <mxCell id="PnXe8qApEqEV6tvW-mXD-811" value="&lt;font style=&quot;font-size: 14px;&quot;&gt;R18&lt;/font&gt;" style="rounded=1;whiteSpace=wrap;html=1;arcSize=12;container=0;" parent="PnXe8qApEqEV6tvW-mXD-835" vertex="1">
          <mxGeometry x="180.6976744186045" y="90" width="34.41860465116279" height="29.999999999999996" as="geometry" />
        </mxCell>
        <mxCell id="PnXe8qApEqEV6tvW-mXD-812" value="&lt;font style=&quot;font-size: 14px;&quot;&gt;R19&lt;/font&gt;" style="rounded=1;whiteSpace=wrap;html=1;arcSize=12;container=0;" parent="PnXe8qApEqEV6tvW-mXD-835" vertex="1">
          <mxGeometry x="223.7209302325582" y="90" width="34.41860465116279" height="29.999999999999996" as="geometry" />
        </mxCell>
        <mxCell id="PnXe8qApEqEV6tvW-mXD-813" value="&lt;font style=&quot;font-size: 14px;&quot;&gt;R20&lt;/font&gt;" style="rounded=1;whiteSpace=wrap;html=1;arcSize=12;container=0;" parent="PnXe8qApEqEV6tvW-mXD-835" vertex="1">
          <mxGeometry x="266.74418604651146" y="90" width="34.41860465116279" height="29.999999999999996" as="geometry" />
        </mxCell>
        <mxCell id="PnXe8qApEqEV6tvW-mXD-814" value="&lt;font style=&quot;font-size: 14px;&quot;&gt;R21&lt;/font&gt;" style="rounded=1;whiteSpace=wrap;html=1;arcSize=12;container=0;" parent="PnXe8qApEqEV6tvW-mXD-835" vertex="1">
          <mxGeometry x="8.60465116279056" y="130" width="34.41860465116279" height="29.999999999999996" as="geometry" />
        </mxCell>
        <mxCell id="PnXe8qApEqEV6tvW-mXD-815" value="&lt;font style=&quot;font-size: 14px;&quot;&gt;R22&lt;/font&gt;" style="rounded=1;whiteSpace=wrap;html=1;arcSize=12;container=0;" parent="PnXe8qApEqEV6tvW-mXD-835" vertex="1">
          <mxGeometry x="51.62790697674427" y="130" width="34.41860465116279" height="29.999999999999996" as="geometry" />
        </mxCell>
        <mxCell id="PnXe8qApEqEV6tvW-mXD-816" value="&lt;font style=&quot;font-size: 14px;&quot;&gt;R23&lt;/font&gt;" style="rounded=1;whiteSpace=wrap;html=1;arcSize=12;container=0;" parent="PnXe8qApEqEV6tvW-mXD-835" vertex="1">
          <mxGeometry x="94.65116279069753" y="130" width="34.41860465116279" height="29.999999999999996" as="geometry" />
        </mxCell>
        <mxCell id="PnXe8qApEqEV6tvW-mXD-817" value="&lt;font style=&quot;font-size: 14px;&quot;&gt;R24&lt;/font&gt;" style="rounded=1;whiteSpace=wrap;html=1;arcSize=12;container=0;" parent="PnXe8qApEqEV6tvW-mXD-835" vertex="1">
          <mxGeometry x="137.67441860465124" y="130" width="34.41860465116279" height="29.999999999999996" as="geometry" />
        </mxCell>
        <mxCell id="PnXe8qApEqEV6tvW-mXD-818" value="&lt;font style=&quot;font-size: 14px;&quot;&gt;R25&lt;/font&gt;" style="rounded=1;whiteSpace=wrap;html=1;arcSize=12;container=0;" parent="PnXe8qApEqEV6tvW-mXD-835" vertex="1">
          <mxGeometry x="180.6976744186045" y="130" width="34.41860465116279" height="29.999999999999996" as="geometry" />
        </mxCell>
        <mxCell id="PnXe8qApEqEV6tvW-mXD-819" value="&lt;font style=&quot;font-size: 14px;&quot;&gt;R26&lt;/font&gt;" style="rounded=1;whiteSpace=wrap;html=1;arcSize=12;container=0;" parent="PnXe8qApEqEV6tvW-mXD-835" vertex="1">
          <mxGeometry x="223.7209302325582" y="130" width="34.41860465116279" height="29.999999999999996" as="geometry" />
        </mxCell>
        <mxCell id="PnXe8qApEqEV6tvW-mXD-820" value="&lt;font style=&quot;font-size: 14px;&quot;&gt;R27&lt;/font&gt;" style="rounded=1;whiteSpace=wrap;html=1;arcSize=12;container=0;" parent="PnXe8qApEqEV6tvW-mXD-835" vertex="1">
          <mxGeometry x="266.74418604651146" y="130" width="34.41860465116279" height="29.999999999999996" as="geometry" />
        </mxCell>
        <mxCell id="PnXe8qApEqEV6tvW-mXD-821" value="&lt;span style=&quot;font-size: 14px;&quot;&gt;IP&lt;/span&gt;" style="rounded=1;whiteSpace=wrap;html=1;arcSize=12;container=0;" parent="PnXe8qApEqEV6tvW-mXD-835" vertex="1">
          <mxGeometry x="326.97674418604674" y="130" width="34.41860465116279" height="29.999999999999996" as="geometry" />
        </mxCell>
        <mxCell id="PnXe8qApEqEV6tvW-mXD-822" value="&lt;font style=&quot;font-size: 8px;&quot;&gt;FLAGS&lt;/font&gt;" style="rounded=1;whiteSpace=wrap;html=1;arcSize=12;container=0;" parent="PnXe8qApEqEV6tvW-mXD-835" vertex="1">
          <mxGeometry x="326.97674418604674" y="10" width="34.41860465116279" height="29.999999999999996" as="geometry" />
        </mxCell>
        <mxCell id="PnXe8qApEqEV6tvW-mXD-823" value="&lt;font style=&quot;font-size: 10px;&quot;&gt;CTRL&lt;/font&gt;" style="rounded=1;whiteSpace=wrap;html=1;arcSize=12;container=0;" parent="PnXe8qApEqEV6tvW-mXD-835" vertex="1">
          <mxGeometry x="326.97674418604674" y="90" width="34.41860465116279" height="29.999999999999996" as="geometry" />
        </mxCell>
        <mxCell id="PnXe8qApEqEV6tvW-mXD-824" value="&lt;span style=&quot;font-size: 14px;&quot;&gt;CPU&lt;/span&gt;" style="rounded=1;whiteSpace=wrap;html=1;arcSize=12;container=0;" parent="PnXe8qApEqEV6tvW-mXD-835" vertex="1">
          <mxGeometry x="326.97674418604674" y="50" width="34.41860465116279" height="29.999999999999996" as="geometry" />
        </mxCell>
        <mxCell id="PnXe8qApEqEV6tvW-mXD-855" value="" style="group" parent="qlpNwuft5wFHGggAAQwj-3" vertex="1" connectable="0">
          <mxGeometry y="610" width="320" height="40" as="geometry" />
        </mxCell>
        <mxCell id="PnXe8qApEqEV6tvW-mXD-853" value="" style="rounded=0;whiteSpace=wrap;html=1;" parent="PnXe8qApEqEV6tvW-mXD-855" vertex="1">
          <mxGeometry width="320" height="40" as="geometry" />
        </mxCell>
        <mxCell id="PnXe8qApEqEV6tvW-mXD-852" value="" style="group" parent="PnXe8qApEqEV6tvW-mXD-855" vertex="1" connectable="0">
          <mxGeometry x="8.205128205128204" y="24" width="303.5897435897436" height="16" as="geometry" />
        </mxCell>
        <mxCell id="PnXe8qApEqEV6tvW-mXD-833" value="" style="rounded=0;whiteSpace=wrap;html=1;fillColor=#647687;fontColor=#ffffff;strokeColor=#314354;container=0;" parent="PnXe8qApEqEV6tvW-mXD-852" vertex="1">
          <mxGeometry y="10.790697674418603" width="94.16152474976005" height="5.209302325581397" as="geometry" />
        </mxCell>
        <mxCell id="PnXe8qApEqEV6tvW-mXD-836" value="" style="rounded=0;whiteSpace=wrap;html=1;fillColor=#647687;fontColor=#ffffff;strokeColor=#314354;container=0;" parent="PnXe8qApEqEV6tvW-mXD-852" vertex="1">
          <mxGeometry x="232.26509438274155" y="0.372093023255814" width="6.2774349833173355" height="15.627906976744185" as="geometry" />
        </mxCell>
        <mxCell id="PnXe8qApEqEV6tvW-mXD-837" value="" style="rounded=0;whiteSpace=wrap;html=1;fillColor=#647687;fontColor=#ffffff;strokeColor=#314354;container=0;" parent="PnXe8qApEqEV6tvW-mXD-852" vertex="1">
          <mxGeometry x="282.48457424928023" y="0.372093023255814" width="6.2774349833173355" height="15.627906976744185" as="geometry" />
        </mxCell>
        <mxCell id="PnXe8qApEqEV6tvW-mXD-838" value="" style="rounded=0;whiteSpace=wrap;html=1;fillColor=#647687;fontColor=#ffffff;strokeColor=#314354;container=0;" parent="PnXe8qApEqEV6tvW-mXD-852" vertex="1">
          <mxGeometry x="112.99382969971194" y="10.790697674418603" width="94.16152474976005" height="5.209302325581397" as="geometry" />
        </mxCell>
        <mxCell id="PnXe8qApEqEV6tvW-mXD-839" value="ADDRLINE" style="text;strokeColor=none;align=center;fillColor=none;html=1;verticalAlign=middle;whiteSpace=wrap;rounded=0;container=0;" parent="PnXe8qApEqEV6tvW-mXD-852" vertex="1">
          <mxGeometry x="25.595375291375227" width="42.97174825174825" height="5.953488372093024" as="geometry" />
        </mxCell>
        <mxCell id="PnXe8qApEqEV6tvW-mXD-840" value="DATALINE" style="text;strokeColor=none;align=center;fillColor=none;html=1;verticalAlign=middle;whiteSpace=wrap;rounded=0;container=0;" parent="PnXe8qApEqEV6tvW-mXD-852" vertex="1">
          <mxGeometry x="143.51515151515153" width="34.52643356643357" height="5.953488372093024" as="geometry" />
        </mxCell>
        <mxCell id="PnXe8qApEqEV6tvW-mXD-845" value="RL" style="text;strokeColor=none;align=center;fillColor=none;html=1;verticalAlign=middle;whiteSpace=wrap;rounded=0;container=0;" parent="PnXe8qApEqEV6tvW-mXD-852" vertex="1">
          <mxGeometry x="292.55011655011657" width="11.039627039627039" height="5.953488372093024" as="geometry" />
        </mxCell>
        <mxCell id="PnXe8qApEqEV6tvW-mXD-849" value="WL" style="text;strokeColor=none;align=center;fillColor=none;html=1;verticalAlign=middle;whiteSpace=wrap;rounded=0;container=0;" parent="PnXe8qApEqEV6tvW-mXD-852" vertex="1">
          <mxGeometry x="242.87179487179486" y="0.372093023255814" width="11.039627039627039" height="5.953488372093024" as="geometry" />
        </mxCell>
        <mxCell id="PnXe8qApEqEV6tvW-mXD-854" value="&lt;font style=&quot;font-size: 10px;&quot;&gt;MEMORY BUS&lt;/font&gt;" style="text;strokeColor=none;align=center;fillColor=none;html=1;verticalAlign=middle;whiteSpace=wrap;rounded=0;" parent="PnXe8qApEqEV6tvW-mXD-855" vertex="1">
          <mxGeometry x="131.28205128205127" width="82.05128205128204" height="16" as="geometry" />
        </mxCell>
        <mxCell id="PnXe8qApEqEV6tvW-mXD-856" value="" style="group" parent="qlpNwuft5wFHGggAAQwj-3" vertex="1" connectable="0">
          <mxGeometry x="340" y="610" width="300" height="40" as="geometry" />
        </mxCell>
        <mxCell id="PnXe8qApEqEV6tvW-mXD-857" value="" style="rounded=0;whiteSpace=wrap;html=1;" parent="PnXe8qApEqEV6tvW-mXD-856" vertex="1">
          <mxGeometry width="300" height="40" as="geometry" />
        </mxCell>
        <mxCell id="PnXe8qApEqEV6tvW-mXD-858" value="" style="group" parent="PnXe8qApEqEV6tvW-mXD-856" vertex="1" connectable="0">
          <mxGeometry x="7.6923076923076925" y="24" width="284.61538461538464" height="16" as="geometry" />
        </mxCell>
        <mxCell id="PnXe8qApEqEV6tvW-mXD-859" value="" style="rounded=0;whiteSpace=wrap;html=1;fillColor=#647687;fontColor=#ffffff;strokeColor=#314354;container=0;" parent="PnXe8qApEqEV6tvW-mXD-858" vertex="1">
          <mxGeometry y="10.790697674418603" width="88.27642945290006" height="5.209302325581397" as="geometry" />
        </mxCell>
        <mxCell id="PnXe8qApEqEV6tvW-mXD-860" value="" style="rounded=0;whiteSpace=wrap;html=1;fillColor=#647687;fontColor=#ffffff;strokeColor=#314354;container=0;" parent="PnXe8qApEqEV6tvW-mXD-858" vertex="1">
          <mxGeometry x="217.74852598382026" y="0.372093023255814" width="5.885095296860003" height="15.627906976744185" as="geometry" />
        </mxCell>
        <mxCell id="PnXe8qApEqEV6tvW-mXD-861" value="" style="rounded=0;whiteSpace=wrap;html=1;fillColor=#647687;fontColor=#ffffff;strokeColor=#314354;container=0;" parent="PnXe8qApEqEV6tvW-mXD-858" vertex="1">
          <mxGeometry x="264.8292883587003" y="0.372093023255814" width="5.885095296860003" height="15.627906976744185" as="geometry" />
        </mxCell>
        <mxCell id="PnXe8qApEqEV6tvW-mXD-862" value="" style="rounded=0;whiteSpace=wrap;html=1;fillColor=#647687;fontColor=#ffffff;strokeColor=#314354;container=0;" parent="PnXe8qApEqEV6tvW-mXD-858" vertex="1">
          <mxGeometry x="105.93171534347996" y="10.790697674418603" width="88.27642945290006" height="5.209302325581397" as="geometry" />
        </mxCell>
        <mxCell id="PnXe8qApEqEV6tvW-mXD-863" value="PORTID" style="text;strokeColor=none;align=center;fillColor=none;html=1;verticalAlign=middle;whiteSpace=wrap;rounded=0;container=0;" parent="PnXe8qApEqEV6tvW-mXD-858" vertex="1">
          <mxGeometry x="23.99566433566428" width="40.286013986014" height="5.953488372093024" as="geometry" />
        </mxCell>
        <mxCell id="PnXe8qApEqEV6tvW-mXD-864" value="DATALINE" style="text;strokeColor=none;align=center;fillColor=none;html=1;verticalAlign=middle;whiteSpace=wrap;rounded=0;container=0;" parent="PnXe8qApEqEV6tvW-mXD-858" vertex="1">
          <mxGeometry x="134.5454545454546" width="32.36853146853148" height="5.953488372093024" as="geometry" />
        </mxCell>
        <mxCell id="PnXe8qApEqEV6tvW-mXD-865" value="RL" style="text;strokeColor=none;align=center;fillColor=none;html=1;verticalAlign=middle;whiteSpace=wrap;rounded=0;container=0;" parent="PnXe8qApEqEV6tvW-mXD-858" vertex="1">
          <mxGeometry x="274.26573426573435" width="10.349650349650352" height="5.953488372093024" as="geometry" />
        </mxCell>
        <mxCell id="PnXe8qApEqEV6tvW-mXD-866" value="WL" style="text;strokeColor=none;align=center;fillColor=none;html=1;verticalAlign=middle;whiteSpace=wrap;rounded=0;container=0;" parent="PnXe8qApEqEV6tvW-mXD-858" vertex="1">
          <mxGeometry x="227.69230769230774" y="0.372093023255814" width="10.349650349650352" height="5.953488372093024" as="geometry" />
        </mxCell>
        <mxCell id="PnXe8qApEqEV6tvW-mXD-867" value="&lt;font style=&quot;font-size: 10px;&quot;&gt;PORT BUS&lt;/font&gt;" style="text;strokeColor=none;align=center;fillColor=none;html=1;verticalAlign=middle;whiteSpace=wrap;rounded=0;" parent="PnXe8qApEqEV6tvW-mXD-856" vertex="1">
          <mxGeometry x="123.07692307692308" width="76.92307692307692" height="16" as="geometry" />
        </mxCell>
        <mxCell id="PnXe8qApEqEV6tvW-mXD-872" value="&lt;span style=&quot;font-size: 14px;&quot;&gt;CORE-CTRL&lt;/span&gt;" style="rounded=1;whiteSpace=wrap;html=1;arcSize=10;container=0;" parent="qlpNwuft5wFHGggAAQwj-3" vertex="1">
          <mxGeometry x="310" y="10" width="100" height="120" as="geometry" />
        </mxCell>
        <mxCell id="PnXe8qApEqEV6tvW-mXD-873" value="&lt;font style=&quot;font-size: 24px;&quot;&gt;SRAM&lt;/font&gt;" style="rounded=1;whiteSpace=wrap;html=1;arcSize=2;container=0;" parent="qlpNwuft5wFHGggAAQwj-3" vertex="1">
          <mxGeometry x="420" y="10" width="220" height="590" as="geometry" />
        </mxCell>
        <mxCell id="PnXe8qApEqEV6tvW-mXD-874" value="HLT" style="rounded=0;whiteSpace=wrap;html=1;" parent="qlpNwuft5wFHGggAAQwj-3" vertex="1">
          <mxGeometry y="100" width="30" height="30" as="geometry" />
        </mxCell>
        <mxCell id="PnXe8qApEqEV6tvW-mXD-875" value="&lt;font style=&quot;font-size: 10px;&quot;&gt;WIPE&lt;/font&gt;" style="rounded=0;whiteSpace=wrap;html=1;" parent="qlpNwuft5wFHGggAAQwj-3" vertex="1">
          <mxGeometry y="140" width="30" height="30" as="geometry" />
        </mxCell>
        <mxCell id="PnXe8qApEqEV6tvW-mXD-878" value="&lt;font style=&quot;font-size: 10px;&quot;&gt;CTRL&lt;/font&gt;" style="rounded=0;whiteSpace=wrap;html=1;align=center;" parent="qlpNwuft5wFHGggAAQwj-3" vertex="1">
          <mxGeometry y="180" width="30" height="90" as="geometry" />
        </mxCell>
        <mxCell id="PnXe8qApEqEV6tvW-mXD-879" value="RST" style="rounded=0;whiteSpace=wrap;html=1;" parent="qlpNwuft5wFHGggAAQwj-3" vertex="1">
          <mxGeometry y="60" width="30" height="30" as="geometry" />
        </mxCell>
        <mxCell id="PnXe8qApEqEV6tvW-mXD-880" value="EN" style="rounded=0;whiteSpace=wrap;html=1;" parent="qlpNwuft5wFHGggAAQwj-3" vertex="1">
          <mxGeometry y="20" width="30" height="30" as="geometry" />
        </mxCell>
        <mxCell id="qlpNwuft5wFHGggAAQwj-2" value="&lt;font style=&quot;font-size: 10px;&quot;&gt;DO&lt;/font&gt;" style="rounded=0;whiteSpace=wrap;html=1;align=center;" vertex="1" parent="qlpNwuft5wFHGggAAQwj-3">
          <mxGeometry y="280" width="30" height="310" as="geometry" />
        </mxCell>
        <mxCell id="qlpNwuft5wFHGggAAQwj-77" value="" style="group" vertex="1" connectable="0" parent="1">
          <mxGeometry x="2080" y="2200" width="650" height="650" as="geometry" />
        </mxCell>
        <mxCell id="qlpNwuft5wFHGggAAQwj-78" value="" style="whiteSpace=wrap;html=1;aspect=fixed;container=0;" vertex="1" parent="qlpNwuft5wFHGggAAQwj-77">
          <mxGeometry width="650" height="650" as="geometry" />
        </mxCell>
        <mxCell id="qlpNwuft5wFHGggAAQwj-79" value="&lt;font style=&quot;font-size: 24px;&quot;&gt;ALU&lt;/font&gt;" style="rounded=1;whiteSpace=wrap;html=1;arcSize=6;container=0;" vertex="1" parent="qlpNwuft5wFHGggAAQwj-77">
          <mxGeometry x="40" y="10" width="260" height="120" as="geometry" />
        </mxCell>
        <mxCell id="qlpNwuft5wFHGggAAQwj-80" value="&lt;font style=&quot;font-size: 24px;&quot;&gt;DECODER&lt;/font&gt;" style="rounded=1;whiteSpace=wrap;html=1;arcSize=6;container=0;" vertex="1" parent="qlpNwuft5wFHGggAAQwj-77">
          <mxGeometry x="40" y="540" width="240" height="60" as="geometry" />
        </mxCell>
        <mxCell id="qlpNwuft5wFHGggAAQwj-81" value="&lt;font style=&quot;font-size: 24px;&quot;&gt;EXECUTE&lt;/font&gt;" style="rounded=1;whiteSpace=wrap;html=1;arcSize=2;container=0;imageHeight=24;" vertex="1" parent="qlpNwuft5wFHGggAAQwj-77">
          <mxGeometry x="40" y="320" width="240" height="210" as="geometry" />
        </mxCell>
        <mxCell id="qlpNwuft5wFHGggAAQwj-82" value="&lt;font style=&quot;font-size: 24px;&quot;&gt;MICRO-FLASH&amp;nbsp;&lt;br&gt;MEMORY&lt;br&gt;&lt;/font&gt;" style="rounded=1;whiteSpace=wrap;html=1;arcSize=5;container=0;" vertex="1" parent="qlpNwuft5wFHGggAAQwj-77">
          <mxGeometry x="290" y="380" width="120" height="220" as="geometry" />
        </mxCell>
        <mxCell id="qlpNwuft5wFHGggAAQwj-83" value="&lt;font style=&quot;font-size: 14px;&quot;&gt;MICROCODE TABLE&lt;/font&gt;" style="rounded=1;whiteSpace=wrap;html=1;arcSize=10;container=0;" vertex="1" parent="qlpNwuft5wFHGggAAQwj-77">
          <mxGeometry x="290" y="320" width="120" height="50" as="geometry" />
        </mxCell>
        <mxCell id="qlpNwuft5wFHGggAAQwj-84" value="" style="group" vertex="1" connectable="0" parent="qlpNwuft5wFHGggAAQwj-77">
          <mxGeometry x="40" y="140" width="370" height="170" as="geometry" />
        </mxCell>
        <mxCell id="qlpNwuft5wFHGggAAQwj-85" value="" style="rounded=1;whiteSpace=wrap;html=1;arcSize=6;container=0;" vertex="1" parent="qlpNwuft5wFHGggAAQwj-84">
          <mxGeometry width="369.99999999999994" height="170" as="geometry" />
        </mxCell>
        <mxCell id="qlpNwuft5wFHGggAAQwj-86" value="&lt;font style=&quot;font-size: 14px;&quot;&gt;R0&lt;/font&gt;" style="rounded=1;whiteSpace=wrap;html=1;arcSize=12;container=0;" vertex="1" parent="qlpNwuft5wFHGggAAQwj-84">
          <mxGeometry x="8.60465116279056" y="10" width="34.41860465116279" height="29.999999999999996" as="geometry" />
        </mxCell>
        <mxCell id="qlpNwuft5wFHGggAAQwj-87" value="&lt;font style=&quot;font-size: 14px;&quot;&gt;R1&lt;/font&gt;" style="rounded=1;whiteSpace=wrap;html=1;arcSize=12;container=0;" vertex="1" parent="qlpNwuft5wFHGggAAQwj-84">
          <mxGeometry x="51.62790697674427" y="10" width="34.41860465116279" height="29.999999999999996" as="geometry" />
        </mxCell>
        <mxCell id="qlpNwuft5wFHGggAAQwj-88" value="&lt;font style=&quot;font-size: 14px;&quot;&gt;R2&lt;/font&gt;" style="rounded=1;whiteSpace=wrap;html=1;arcSize=12;container=0;" vertex="1" parent="qlpNwuft5wFHGggAAQwj-84">
          <mxGeometry x="94.65116279069753" y="10" width="34.41860465116279" height="29.999999999999996" as="geometry" />
        </mxCell>
        <mxCell id="qlpNwuft5wFHGggAAQwj-89" value="&lt;font style=&quot;font-size: 14px;&quot;&gt;R3&lt;/font&gt;" style="rounded=1;whiteSpace=wrap;html=1;arcSize=12;container=0;" vertex="1" parent="qlpNwuft5wFHGggAAQwj-84">
          <mxGeometry x="137.67441860465124" y="10" width="34.41860465116279" height="29.999999999999996" as="geometry" />
        </mxCell>
        <mxCell id="qlpNwuft5wFHGggAAQwj-90" value="&lt;font style=&quot;font-size: 14px;&quot;&gt;R4&lt;/font&gt;" style="rounded=1;whiteSpace=wrap;html=1;arcSize=12;container=0;" vertex="1" parent="qlpNwuft5wFHGggAAQwj-84">
          <mxGeometry x="180.6976744186045" y="10" width="34.41860465116279" height="29.999999999999996" as="geometry" />
        </mxCell>
        <mxCell id="qlpNwuft5wFHGggAAQwj-91" value="&lt;font style=&quot;font-size: 14px;&quot;&gt;R5&lt;/font&gt;" style="rounded=1;whiteSpace=wrap;html=1;arcSize=12;container=0;" vertex="1" parent="qlpNwuft5wFHGggAAQwj-84">
          <mxGeometry x="223.7209302325582" y="10" width="34.41860465116279" height="29.999999999999996" as="geometry" />
        </mxCell>
        <mxCell id="qlpNwuft5wFHGggAAQwj-92" value="&lt;font style=&quot;font-size: 14px;&quot;&gt;R6&lt;/font&gt;" style="rounded=1;whiteSpace=wrap;html=1;arcSize=12;container=0;" vertex="1" parent="qlpNwuft5wFHGggAAQwj-84">
          <mxGeometry x="266.74418604651146" y="10" width="34.41860465116279" height="29.999999999999996" as="geometry" />
        </mxCell>
        <mxCell id="qlpNwuft5wFHGggAAQwj-93" value="&lt;font style=&quot;font-size: 14px;&quot;&gt;R7&lt;/font&gt;" style="rounded=1;whiteSpace=wrap;html=1;arcSize=12;container=0;" vertex="1" parent="qlpNwuft5wFHGggAAQwj-84">
          <mxGeometry x="8.60465116279056" y="50" width="34.41860465116279" height="29.999999999999996" as="geometry" />
        </mxCell>
        <mxCell id="qlpNwuft5wFHGggAAQwj-94" value="&lt;font style=&quot;font-size: 14px;&quot;&gt;R8&lt;/font&gt;" style="rounded=1;whiteSpace=wrap;html=1;arcSize=12;container=0;" vertex="1" parent="qlpNwuft5wFHGggAAQwj-84">
          <mxGeometry x="51.62790697674427" y="50" width="34.41860465116279" height="29.999999999999996" as="geometry" />
        </mxCell>
        <mxCell id="qlpNwuft5wFHGggAAQwj-95" value="&lt;font style=&quot;font-size: 14px;&quot;&gt;R9&lt;/font&gt;" style="rounded=1;whiteSpace=wrap;html=1;arcSize=12;container=0;" vertex="1" parent="qlpNwuft5wFHGggAAQwj-84">
          <mxGeometry x="94.65116279069753" y="50" width="34.41860465116279" height="29.999999999999996" as="geometry" />
        </mxCell>
        <mxCell id="qlpNwuft5wFHGggAAQwj-96" value="&lt;font style=&quot;font-size: 14px;&quot;&gt;R10&lt;/font&gt;" style="rounded=1;whiteSpace=wrap;html=1;arcSize=12;container=0;" vertex="1" parent="qlpNwuft5wFHGggAAQwj-84">
          <mxGeometry x="137.67441860465124" y="50" width="34.41860465116279" height="29.999999999999996" as="geometry" />
        </mxCell>
        <mxCell id="qlpNwuft5wFHGggAAQwj-97" value="&lt;font style=&quot;font-size: 14px;&quot;&gt;R11&lt;/font&gt;" style="rounded=1;whiteSpace=wrap;html=1;arcSize=12;container=0;" vertex="1" parent="qlpNwuft5wFHGggAAQwj-84">
          <mxGeometry x="180.6976744186045" y="50" width="34.41860465116279" height="29.999999999999996" as="geometry" />
        </mxCell>
        <mxCell id="qlpNwuft5wFHGggAAQwj-98" value="&lt;font style=&quot;font-size: 14px;&quot;&gt;R12&lt;/font&gt;" style="rounded=1;whiteSpace=wrap;html=1;arcSize=12;container=0;" vertex="1" parent="qlpNwuft5wFHGggAAQwj-84">
          <mxGeometry x="223.7209302325582" y="50" width="34.41860465116279" height="29.999999999999996" as="geometry" />
        </mxCell>
        <mxCell id="qlpNwuft5wFHGggAAQwj-99" value="&lt;font style=&quot;font-size: 14px;&quot;&gt;R13&lt;/font&gt;" style="rounded=1;whiteSpace=wrap;html=1;arcSize=12;container=0;" vertex="1" parent="qlpNwuft5wFHGggAAQwj-84">
          <mxGeometry x="266.74418604651146" y="50" width="34.41860465116279" height="29.999999999999996" as="geometry" />
        </mxCell>
        <mxCell id="qlpNwuft5wFHGggAAQwj-100" value="&lt;font style=&quot;font-size: 14px;&quot;&gt;R14&lt;/font&gt;" style="rounded=1;whiteSpace=wrap;html=1;arcSize=12;container=0;" vertex="1" parent="qlpNwuft5wFHGggAAQwj-84">
          <mxGeometry x="8.60465116279056" y="90" width="34.41860465116279" height="29.999999999999996" as="geometry" />
        </mxCell>
        <mxCell id="qlpNwuft5wFHGggAAQwj-101" value="&lt;font style=&quot;font-size: 14px;&quot;&gt;R15&lt;/font&gt;" style="rounded=1;whiteSpace=wrap;html=1;arcSize=12;container=0;" vertex="1" parent="qlpNwuft5wFHGggAAQwj-84">
          <mxGeometry x="51.62790697674427" y="90" width="34.41860465116279" height="29.999999999999996" as="geometry" />
        </mxCell>
        <mxCell id="qlpNwuft5wFHGggAAQwj-102" value="&lt;font style=&quot;font-size: 14px;&quot;&gt;R16&lt;/font&gt;" style="rounded=1;whiteSpace=wrap;html=1;arcSize=12;container=0;" vertex="1" parent="qlpNwuft5wFHGggAAQwj-84">
          <mxGeometry x="94.65116279069753" y="90" width="34.41860465116279" height="29.999999999999996" as="geometry" />
        </mxCell>
        <mxCell id="qlpNwuft5wFHGggAAQwj-103" value="&lt;font style=&quot;font-size: 14px;&quot;&gt;R17&lt;/font&gt;" style="rounded=1;whiteSpace=wrap;html=1;arcSize=12;container=0;" vertex="1" parent="qlpNwuft5wFHGggAAQwj-84">
          <mxGeometry x="137.67441860465124" y="90" width="34.41860465116279" height="29.999999999999996" as="geometry" />
        </mxCell>
        <mxCell id="qlpNwuft5wFHGggAAQwj-104" value="&lt;font style=&quot;font-size: 14px;&quot;&gt;R18&lt;/font&gt;" style="rounded=1;whiteSpace=wrap;html=1;arcSize=12;container=0;" vertex="1" parent="qlpNwuft5wFHGggAAQwj-84">
          <mxGeometry x="180.6976744186045" y="90" width="34.41860465116279" height="29.999999999999996" as="geometry" />
        </mxCell>
        <mxCell id="qlpNwuft5wFHGggAAQwj-105" value="&lt;font style=&quot;font-size: 14px;&quot;&gt;R19&lt;/font&gt;" style="rounded=1;whiteSpace=wrap;html=1;arcSize=12;container=0;" vertex="1" parent="qlpNwuft5wFHGggAAQwj-84">
          <mxGeometry x="223.7209302325582" y="90" width="34.41860465116279" height="29.999999999999996" as="geometry" />
        </mxCell>
        <mxCell id="qlpNwuft5wFHGggAAQwj-106" value="&lt;font style=&quot;font-size: 14px;&quot;&gt;R20&lt;/font&gt;" style="rounded=1;whiteSpace=wrap;html=1;arcSize=12;container=0;" vertex="1" parent="qlpNwuft5wFHGggAAQwj-84">
          <mxGeometry x="266.74418604651146" y="90" width="34.41860465116279" height="29.999999999999996" as="geometry" />
        </mxCell>
        <mxCell id="qlpNwuft5wFHGggAAQwj-107" value="&lt;font style=&quot;font-size: 14px;&quot;&gt;R21&lt;/font&gt;" style="rounded=1;whiteSpace=wrap;html=1;arcSize=12;container=0;" vertex="1" parent="qlpNwuft5wFHGggAAQwj-84">
          <mxGeometry x="8.60465116279056" y="130" width="34.41860465116279" height="29.999999999999996" as="geometry" />
        </mxCell>
        <mxCell id="qlpNwuft5wFHGggAAQwj-108" value="&lt;font style=&quot;font-size: 14px;&quot;&gt;R22&lt;/font&gt;" style="rounded=1;whiteSpace=wrap;html=1;arcSize=12;container=0;" vertex="1" parent="qlpNwuft5wFHGggAAQwj-84">
          <mxGeometry x="51.62790697674427" y="130" width="34.41860465116279" height="29.999999999999996" as="geometry" />
        </mxCell>
        <mxCell id="qlpNwuft5wFHGggAAQwj-109" value="&lt;font style=&quot;font-size: 14px;&quot;&gt;R23&lt;/font&gt;" style="rounded=1;whiteSpace=wrap;html=1;arcSize=12;container=0;" vertex="1" parent="qlpNwuft5wFHGggAAQwj-84">
          <mxGeometry x="94.65116279069753" y="130" width="34.41860465116279" height="29.999999999999996" as="geometry" />
        </mxCell>
        <mxCell id="qlpNwuft5wFHGggAAQwj-110" value="&lt;font style=&quot;font-size: 14px;&quot;&gt;R24&lt;/font&gt;" style="rounded=1;whiteSpace=wrap;html=1;arcSize=12;container=0;" vertex="1" parent="qlpNwuft5wFHGggAAQwj-84">
          <mxGeometry x="137.67441860465124" y="130" width="34.41860465116279" height="29.999999999999996" as="geometry" />
        </mxCell>
        <mxCell id="qlpNwuft5wFHGggAAQwj-111" value="&lt;font style=&quot;font-size: 14px;&quot;&gt;R25&lt;/font&gt;" style="rounded=1;whiteSpace=wrap;html=1;arcSize=12;container=0;" vertex="1" parent="qlpNwuft5wFHGggAAQwj-84">
          <mxGeometry x="180.6976744186045" y="130" width="34.41860465116279" height="29.999999999999996" as="geometry" />
        </mxCell>
        <mxCell id="qlpNwuft5wFHGggAAQwj-112" value="&lt;font style=&quot;font-size: 14px;&quot;&gt;R26&lt;/font&gt;" style="rounded=1;whiteSpace=wrap;html=1;arcSize=12;container=0;" vertex="1" parent="qlpNwuft5wFHGggAAQwj-84">
          <mxGeometry x="223.7209302325582" y="130" width="34.41860465116279" height="29.999999999999996" as="geometry" />
        </mxCell>
        <mxCell id="qlpNwuft5wFHGggAAQwj-113" value="&lt;font style=&quot;font-size: 14px;&quot;&gt;R27&lt;/font&gt;" style="rounded=1;whiteSpace=wrap;html=1;arcSize=12;container=0;" vertex="1" parent="qlpNwuft5wFHGggAAQwj-84">
          <mxGeometry x="266.74418604651146" y="130" width="34.41860465116279" height="29.999999999999996" as="geometry" />
        </mxCell>
        <mxCell id="qlpNwuft5wFHGggAAQwj-114" value="&lt;span style=&quot;font-size: 14px;&quot;&gt;IP&lt;/span&gt;" style="rounded=1;whiteSpace=wrap;html=1;arcSize=12;container=0;" vertex="1" parent="qlpNwuft5wFHGggAAQwj-84">
          <mxGeometry x="326.97674418604674" y="130" width="34.41860465116279" height="29.999999999999996" as="geometry" />
        </mxCell>
        <mxCell id="qlpNwuft5wFHGggAAQwj-115" value="&lt;font style=&quot;font-size: 8px;&quot;&gt;FLAGS&lt;/font&gt;" style="rounded=1;whiteSpace=wrap;html=1;arcSize=12;container=0;" vertex="1" parent="qlpNwuft5wFHGggAAQwj-84">
          <mxGeometry x="326.97674418604674" y="10" width="34.41860465116279" height="29.999999999999996" as="geometry" />
        </mxCell>
        <mxCell id="qlpNwuft5wFHGggAAQwj-116" value="&lt;font style=&quot;font-size: 10px;&quot;&gt;CTRL&lt;/font&gt;" style="rounded=1;whiteSpace=wrap;html=1;arcSize=12;container=0;" vertex="1" parent="qlpNwuft5wFHGggAAQwj-84">
          <mxGeometry x="326.97674418604674" y="90" width="34.41860465116279" height="29.999999999999996" as="geometry" />
        </mxCell>
        <mxCell id="qlpNwuft5wFHGggAAQwj-117" value="&lt;span style=&quot;font-size: 14px;&quot;&gt;CPU&lt;/span&gt;" style="rounded=1;whiteSpace=wrap;html=1;arcSize=12;container=0;" vertex="1" parent="qlpNwuft5wFHGggAAQwj-84">
          <mxGeometry x="326.97674418604674" y="50" width="34.41860465116279" height="29.999999999999996" as="geometry" />
        </mxCell>
        <mxCell id="qlpNwuft5wFHGggAAQwj-118" value="" style="group" vertex="1" connectable="0" parent="qlpNwuft5wFHGggAAQwj-77">
          <mxGeometry y="610" width="320" height="40" as="geometry" />
        </mxCell>
        <mxCell id="qlpNwuft5wFHGggAAQwj-119" value="" style="rounded=0;whiteSpace=wrap;html=1;" vertex="1" parent="qlpNwuft5wFHGggAAQwj-118">
          <mxGeometry width="320" height="40" as="geometry" />
        </mxCell>
        <mxCell id="qlpNwuft5wFHGggAAQwj-120" value="" style="group" vertex="1" connectable="0" parent="qlpNwuft5wFHGggAAQwj-118">
          <mxGeometry x="8.205128205128204" y="24" width="303.5897435897436" height="16" as="geometry" />
        </mxCell>
        <mxCell id="qlpNwuft5wFHGggAAQwj-121" value="" style="rounded=0;whiteSpace=wrap;html=1;fillColor=#647687;fontColor=#ffffff;strokeColor=#314354;container=0;" vertex="1" parent="qlpNwuft5wFHGggAAQwj-120">
          <mxGeometry y="10.790697674418603" width="94.16152474976005" height="5.209302325581397" as="geometry" />
        </mxCell>
        <mxCell id="qlpNwuft5wFHGggAAQwj-122" value="" style="rounded=0;whiteSpace=wrap;html=1;fillColor=#647687;fontColor=#ffffff;strokeColor=#314354;container=0;" vertex="1" parent="qlpNwuft5wFHGggAAQwj-120">
          <mxGeometry x="232.26509438274155" y="0.372093023255814" width="6.2774349833173355" height="15.627906976744185" as="geometry" />
        </mxCell>
        <mxCell id="qlpNwuft5wFHGggAAQwj-123" value="" style="rounded=0;whiteSpace=wrap;html=1;fillColor=#647687;fontColor=#ffffff;strokeColor=#314354;container=0;" vertex="1" parent="qlpNwuft5wFHGggAAQwj-120">
          <mxGeometry x="282.48457424928023" y="0.372093023255814" width="6.2774349833173355" height="15.627906976744185" as="geometry" />
        </mxCell>
        <mxCell id="qlpNwuft5wFHGggAAQwj-124" value="" style="rounded=0;whiteSpace=wrap;html=1;fillColor=#647687;fontColor=#ffffff;strokeColor=#314354;container=0;" vertex="1" parent="qlpNwuft5wFHGggAAQwj-120">
          <mxGeometry x="112.99382969971194" y="10.790697674418603" width="94.16152474976005" height="5.209302325581397" as="geometry" />
        </mxCell>
        <mxCell id="qlpNwuft5wFHGggAAQwj-125" value="ADDRLINE" style="text;strokeColor=none;align=center;fillColor=none;html=1;verticalAlign=middle;whiteSpace=wrap;rounded=0;container=0;" vertex="1" parent="qlpNwuft5wFHGggAAQwj-120">
          <mxGeometry x="25.595375291375227" width="42.97174825174825" height="5.953488372093024" as="geometry" />
        </mxCell>
        <mxCell id="qlpNwuft5wFHGggAAQwj-126" value="DATALINE" style="text;strokeColor=none;align=center;fillColor=none;html=1;verticalAlign=middle;whiteSpace=wrap;rounded=0;container=0;" vertex="1" parent="qlpNwuft5wFHGggAAQwj-120">
          <mxGeometry x="143.51515151515153" width="34.52643356643357" height="5.953488372093024" as="geometry" />
        </mxCell>
        <mxCell id="qlpNwuft5wFHGggAAQwj-127" value="RL" style="text;strokeColor=none;align=center;fillColor=none;html=1;verticalAlign=middle;whiteSpace=wrap;rounded=0;container=0;" vertex="1" parent="qlpNwuft5wFHGggAAQwj-120">
          <mxGeometry x="292.55011655011657" width="11.039627039627039" height="5.953488372093024" as="geometry" />
        </mxCell>
        <mxCell id="qlpNwuft5wFHGggAAQwj-128" value="WL" style="text;strokeColor=none;align=center;fillColor=none;html=1;verticalAlign=middle;whiteSpace=wrap;rounded=0;container=0;" vertex="1" parent="qlpNwuft5wFHGggAAQwj-120">
          <mxGeometry x="242.87179487179486" y="0.372093023255814" width="11.039627039627039" height="5.953488372093024" as="geometry" />
        </mxCell>
        <mxCell id="qlpNwuft5wFHGggAAQwj-129" value="&lt;font style=&quot;font-size: 10px;&quot;&gt;MEMORY BUS&lt;/font&gt;" style="text;strokeColor=none;align=center;fillColor=none;html=1;verticalAlign=middle;whiteSpace=wrap;rounded=0;" vertex="1" parent="qlpNwuft5wFHGggAAQwj-118">
          <mxGeometry x="131.28205128205127" width="82.05128205128204" height="16" as="geometry" />
        </mxCell>
        <mxCell id="qlpNwuft5wFHGggAAQwj-130" value="" style="group" vertex="1" connectable="0" parent="qlpNwuft5wFHGggAAQwj-77">
          <mxGeometry x="340" y="610" width="300" height="40" as="geometry" />
        </mxCell>
        <mxCell id="qlpNwuft5wFHGggAAQwj-131" value="" style="rounded=0;whiteSpace=wrap;html=1;" vertex="1" parent="qlpNwuft5wFHGggAAQwj-130">
          <mxGeometry width="300" height="40" as="geometry" />
        </mxCell>
        <mxCell id="qlpNwuft5wFHGggAAQwj-132" value="" style="group" vertex="1" connectable="0" parent="qlpNwuft5wFHGggAAQwj-130">
          <mxGeometry x="7.6923076923076925" y="24" width="284.61538461538464" height="16" as="geometry" />
        </mxCell>
        <mxCell id="qlpNwuft5wFHGggAAQwj-133" value="" style="rounded=0;whiteSpace=wrap;html=1;fillColor=#647687;fontColor=#ffffff;strokeColor=#314354;container=0;" vertex="1" parent="qlpNwuft5wFHGggAAQwj-132">
          <mxGeometry y="10.790697674418603" width="88.27642945290006" height="5.209302325581397" as="geometry" />
        </mxCell>
        <mxCell id="qlpNwuft5wFHGggAAQwj-134" value="" style="rounded=0;whiteSpace=wrap;html=1;fillColor=#647687;fontColor=#ffffff;strokeColor=#314354;container=0;" vertex="1" parent="qlpNwuft5wFHGggAAQwj-132">
          <mxGeometry x="217.74852598382026" y="0.372093023255814" width="5.885095296860003" height="15.627906976744185" as="geometry" />
        </mxCell>
        <mxCell id="qlpNwuft5wFHGggAAQwj-135" value="" style="rounded=0;whiteSpace=wrap;html=1;fillColor=#647687;fontColor=#ffffff;strokeColor=#314354;container=0;" vertex="1" parent="qlpNwuft5wFHGggAAQwj-132">
          <mxGeometry x="264.8292883587003" y="0.372093023255814" width="5.885095296860003" height="15.627906976744185" as="geometry" />
        </mxCell>
        <mxCell id="qlpNwuft5wFHGggAAQwj-136" value="" style="rounded=0;whiteSpace=wrap;html=1;fillColor=#647687;fontColor=#ffffff;strokeColor=#314354;container=0;" vertex="1" parent="qlpNwuft5wFHGggAAQwj-132">
          <mxGeometry x="105.93171534347996" y="10.790697674418603" width="88.27642945290006" height="5.209302325581397" as="geometry" />
        </mxCell>
        <mxCell id="qlpNwuft5wFHGggAAQwj-137" value="PORTID" style="text;strokeColor=none;align=center;fillColor=none;html=1;verticalAlign=middle;whiteSpace=wrap;rounded=0;container=0;" vertex="1" parent="qlpNwuft5wFHGggAAQwj-132">
          <mxGeometry x="23.99566433566428" width="40.286013986014" height="5.953488372093024" as="geometry" />
        </mxCell>
        <mxCell id="qlpNwuft5wFHGggAAQwj-138" value="DATALINE" style="text;strokeColor=none;align=center;fillColor=none;html=1;verticalAlign=middle;whiteSpace=wrap;rounded=0;container=0;" vertex="1" parent="qlpNwuft5wFHGggAAQwj-132">
          <mxGeometry x="134.5454545454546" width="32.36853146853148" height="5.953488372093024" as="geometry" />
        </mxCell>
        <mxCell id="qlpNwuft5wFHGggAAQwj-139" value="RL" style="text;strokeColor=none;align=center;fillColor=none;html=1;verticalAlign=middle;whiteSpace=wrap;rounded=0;container=0;" vertex="1" parent="qlpNwuft5wFHGggAAQwj-132">
          <mxGeometry x="274.26573426573435" width="10.349650349650352" height="5.953488372093024" as="geometry" />
        </mxCell>
        <mxCell id="qlpNwuft5wFHGggAAQwj-140" value="WL" style="text;strokeColor=none;align=center;fillColor=none;html=1;verticalAlign=middle;whiteSpace=wrap;rounded=0;container=0;" vertex="1" parent="qlpNwuft5wFHGggAAQwj-132">
          <mxGeometry x="227.69230769230774" y="0.372093023255814" width="10.349650349650352" height="5.953488372093024" as="geometry" />
        </mxCell>
        <mxCell id="qlpNwuft5wFHGggAAQwj-141" value="&lt;font style=&quot;font-size: 10px;&quot;&gt;PORT BUS&lt;/font&gt;" style="text;strokeColor=none;align=center;fillColor=none;html=1;verticalAlign=middle;whiteSpace=wrap;rounded=0;" vertex="1" parent="qlpNwuft5wFHGggAAQwj-130">
          <mxGeometry x="123.07692307692308" width="76.92307692307692" height="16" as="geometry" />
        </mxCell>
        <mxCell id="qlpNwuft5wFHGggAAQwj-142" value="&lt;span style=&quot;font-size: 14px;&quot;&gt;CORE-CTRL&lt;/span&gt;" style="rounded=1;whiteSpace=wrap;html=1;arcSize=10;container=0;" vertex="1" parent="qlpNwuft5wFHGggAAQwj-77">
          <mxGeometry x="310" y="10" width="100" height="120" as="geometry" />
        </mxCell>
        <mxCell id="qlpNwuft5wFHGggAAQwj-143" value="&lt;font style=&quot;font-size: 24px;&quot;&gt;SRAM&lt;/font&gt;" style="rounded=1;whiteSpace=wrap;html=1;arcSize=2;container=0;" vertex="1" parent="qlpNwuft5wFHGggAAQwj-77">
          <mxGeometry x="420" y="10" width="220" height="590" as="geometry" />
        </mxCell>
        <mxCell id="qlpNwuft5wFHGggAAQwj-144" value="HLT" style="rounded=0;whiteSpace=wrap;html=1;" vertex="1" parent="qlpNwuft5wFHGggAAQwj-77">
          <mxGeometry y="100" width="30" height="30" as="geometry" />
        </mxCell>
        <mxCell id="qlpNwuft5wFHGggAAQwj-145" value="&lt;font style=&quot;font-size: 10px;&quot;&gt;WIPE&lt;/font&gt;" style="rounded=0;whiteSpace=wrap;html=1;" vertex="1" parent="qlpNwuft5wFHGggAAQwj-77">
          <mxGeometry y="140" width="30" height="30" as="geometry" />
        </mxCell>
        <mxCell id="qlpNwuft5wFHGggAAQwj-146" value="&lt;font style=&quot;font-size: 10px;&quot;&gt;CTRL&lt;/font&gt;" style="rounded=0;whiteSpace=wrap;html=1;align=center;" vertex="1" parent="qlpNwuft5wFHGggAAQwj-77">
          <mxGeometry y="180" width="30" height="90" as="geometry" />
        </mxCell>
        <mxCell id="qlpNwuft5wFHGggAAQwj-147" value="RST" style="rounded=0;whiteSpace=wrap;html=1;" vertex="1" parent="qlpNwuft5wFHGggAAQwj-77">
          <mxGeometry y="60" width="30" height="30" as="geometry" />
        </mxCell>
        <mxCell id="qlpNwuft5wFHGggAAQwj-148" value="EN" style="rounded=0;whiteSpace=wrap;html=1;" vertex="1" parent="qlpNwuft5wFHGggAAQwj-77">
          <mxGeometry y="20" width="30" height="30" as="geometry" />
        </mxCell>
        <mxCell id="qlpNwuft5wFHGggAAQwj-149" value="&lt;font style=&quot;font-size: 10px;&quot;&gt;DO&lt;/font&gt;" style="rounded=0;whiteSpace=wrap;html=1;align=center;" vertex="1" parent="qlpNwuft5wFHGggAAQwj-77">
          <mxGeometry y="280" width="30" height="310" as="geometry" />
        </mxCell>
        <mxCell id="qlpNwuft5wFHGggAAQwj-296" value="" style="group" vertex="1" connectable="0" parent="1">
          <mxGeometry x="2880" y="1400" width="650" height="650" as="geometry" />
        </mxCell>
        <mxCell id="qlpNwuft5wFHGggAAQwj-297" value="" style="whiteSpace=wrap;html=1;aspect=fixed;container=0;" vertex="1" parent="qlpNwuft5wFHGggAAQwj-296">
          <mxGeometry width="650" height="650" as="geometry" />
        </mxCell>
        <mxCell id="qlpNwuft5wFHGggAAQwj-298" value="&lt;font style=&quot;font-size: 24px;&quot;&gt;ALU&lt;/font&gt;" style="rounded=1;whiteSpace=wrap;html=1;arcSize=6;container=0;" vertex="1" parent="qlpNwuft5wFHGggAAQwj-296">
          <mxGeometry x="40" y="10" width="260" height="120" as="geometry" />
        </mxCell>
        <mxCell id="qlpNwuft5wFHGggAAQwj-299" value="&lt;font style=&quot;font-size: 24px;&quot;&gt;DECODER&lt;/font&gt;" style="rounded=1;whiteSpace=wrap;html=1;arcSize=6;container=0;" vertex="1" parent="qlpNwuft5wFHGggAAQwj-296">
          <mxGeometry x="40" y="540" width="240" height="60" as="geometry" />
        </mxCell>
        <mxCell id="qlpNwuft5wFHGggAAQwj-300" value="&lt;font style=&quot;font-size: 24px;&quot;&gt;EXECUTE&lt;/font&gt;" style="rounded=1;whiteSpace=wrap;html=1;arcSize=2;container=0;imageHeight=24;" vertex="1" parent="qlpNwuft5wFHGggAAQwj-296">
          <mxGeometry x="40" y="320" width="240" height="210" as="geometry" />
        </mxCell>
        <mxCell id="qlpNwuft5wFHGggAAQwj-301" value="&lt;font style=&quot;font-size: 24px;&quot;&gt;MICRO-FLASH&amp;nbsp;&lt;br&gt;MEMORY&lt;br&gt;&lt;/font&gt;" style="rounded=1;whiteSpace=wrap;html=1;arcSize=5;container=0;" vertex="1" parent="qlpNwuft5wFHGggAAQwj-296">
          <mxGeometry x="290" y="380" width="120" height="220" as="geometry" />
        </mxCell>
        <mxCell id="qlpNwuft5wFHGggAAQwj-302" value="&lt;font style=&quot;font-size: 14px;&quot;&gt;MICROCODE TABLE&lt;/font&gt;" style="rounded=1;whiteSpace=wrap;html=1;arcSize=10;container=0;" vertex="1" parent="qlpNwuft5wFHGggAAQwj-296">
          <mxGeometry x="290" y="320" width="120" height="50" as="geometry" />
        </mxCell>
        <mxCell id="qlpNwuft5wFHGggAAQwj-303" value="" style="group" vertex="1" connectable="0" parent="qlpNwuft5wFHGggAAQwj-296">
          <mxGeometry x="40" y="140" width="370" height="170" as="geometry" />
        </mxCell>
        <mxCell id="qlpNwuft5wFHGggAAQwj-304" value="" style="rounded=1;whiteSpace=wrap;html=1;arcSize=6;container=0;" vertex="1" parent="qlpNwuft5wFHGggAAQwj-303">
          <mxGeometry width="369.99999999999994" height="170" as="geometry" />
        </mxCell>
        <mxCell id="qlpNwuft5wFHGggAAQwj-305" value="&lt;font style=&quot;font-size: 14px;&quot;&gt;R0&lt;/font&gt;" style="rounded=1;whiteSpace=wrap;html=1;arcSize=12;container=0;" vertex="1" parent="qlpNwuft5wFHGggAAQwj-303">
          <mxGeometry x="8.60465116279056" y="10" width="34.41860465116279" height="29.999999999999996" as="geometry" />
        </mxCell>
        <mxCell id="qlpNwuft5wFHGggAAQwj-306" value="&lt;font style=&quot;font-size: 14px;&quot;&gt;R1&lt;/font&gt;" style="rounded=1;whiteSpace=wrap;html=1;arcSize=12;container=0;" vertex="1" parent="qlpNwuft5wFHGggAAQwj-303">
          <mxGeometry x="51.62790697674427" y="10" width="34.41860465116279" height="29.999999999999996" as="geometry" />
        </mxCell>
        <mxCell id="qlpNwuft5wFHGggAAQwj-307" value="&lt;font style=&quot;font-size: 14px;&quot;&gt;R2&lt;/font&gt;" style="rounded=1;whiteSpace=wrap;html=1;arcSize=12;container=0;" vertex="1" parent="qlpNwuft5wFHGggAAQwj-303">
          <mxGeometry x="94.65116279069753" y="10" width="34.41860465116279" height="29.999999999999996" as="geometry" />
        </mxCell>
        <mxCell id="qlpNwuft5wFHGggAAQwj-308" value="&lt;font style=&quot;font-size: 14px;&quot;&gt;R3&lt;/font&gt;" style="rounded=1;whiteSpace=wrap;html=1;arcSize=12;container=0;" vertex="1" parent="qlpNwuft5wFHGggAAQwj-303">
          <mxGeometry x="137.67441860465124" y="10" width="34.41860465116279" height="29.999999999999996" as="geometry" />
        </mxCell>
        <mxCell id="qlpNwuft5wFHGggAAQwj-309" value="&lt;font style=&quot;font-size: 14px;&quot;&gt;R4&lt;/font&gt;" style="rounded=1;whiteSpace=wrap;html=1;arcSize=12;container=0;" vertex="1" parent="qlpNwuft5wFHGggAAQwj-303">
          <mxGeometry x="180.6976744186045" y="10" width="34.41860465116279" height="29.999999999999996" as="geometry" />
        </mxCell>
        <mxCell id="qlpNwuft5wFHGggAAQwj-310" value="&lt;font style=&quot;font-size: 14px;&quot;&gt;R5&lt;/font&gt;" style="rounded=1;whiteSpace=wrap;html=1;arcSize=12;container=0;" vertex="1" parent="qlpNwuft5wFHGggAAQwj-303">
          <mxGeometry x="223.7209302325582" y="10" width="34.41860465116279" height="29.999999999999996" as="geometry" />
        </mxCell>
        <mxCell id="qlpNwuft5wFHGggAAQwj-311" value="&lt;font style=&quot;font-size: 14px;&quot;&gt;R6&lt;/font&gt;" style="rounded=1;whiteSpace=wrap;html=1;arcSize=12;container=0;" vertex="1" parent="qlpNwuft5wFHGggAAQwj-303">
          <mxGeometry x="266.74418604651146" y="10" width="34.41860465116279" height="29.999999999999996" as="geometry" />
        </mxCell>
        <mxCell id="qlpNwuft5wFHGggAAQwj-312" value="&lt;font style=&quot;font-size: 14px;&quot;&gt;R7&lt;/font&gt;" style="rounded=1;whiteSpace=wrap;html=1;arcSize=12;container=0;" vertex="1" parent="qlpNwuft5wFHGggAAQwj-303">
          <mxGeometry x="8.60465116279056" y="50" width="34.41860465116279" height="29.999999999999996" as="geometry" />
        </mxCell>
        <mxCell id="qlpNwuft5wFHGggAAQwj-313" value="&lt;font style=&quot;font-size: 14px;&quot;&gt;R8&lt;/font&gt;" style="rounded=1;whiteSpace=wrap;html=1;arcSize=12;container=0;" vertex="1" parent="qlpNwuft5wFHGggAAQwj-303">
          <mxGeometry x="51.62790697674427" y="50" width="34.41860465116279" height="29.999999999999996" as="geometry" />
        </mxCell>
        <mxCell id="qlpNwuft5wFHGggAAQwj-314" value="&lt;font style=&quot;font-size: 14px;&quot;&gt;R9&lt;/font&gt;" style="rounded=1;whiteSpace=wrap;html=1;arcSize=12;container=0;" vertex="1" parent="qlpNwuft5wFHGggAAQwj-303">
          <mxGeometry x="94.65116279069753" y="50" width="34.41860465116279" height="29.999999999999996" as="geometry" />
        </mxCell>
        <mxCell id="qlpNwuft5wFHGggAAQwj-315" value="&lt;font style=&quot;font-size: 14px;&quot;&gt;R10&lt;/font&gt;" style="rounded=1;whiteSpace=wrap;html=1;arcSize=12;container=0;" vertex="1" parent="qlpNwuft5wFHGggAAQwj-303">
          <mxGeometry x="137.67441860465124" y="50" width="34.41860465116279" height="29.999999999999996" as="geometry" />
        </mxCell>
        <mxCell id="qlpNwuft5wFHGggAAQwj-316" value="&lt;font style=&quot;font-size: 14px;&quot;&gt;R11&lt;/font&gt;" style="rounded=1;whiteSpace=wrap;html=1;arcSize=12;container=0;" vertex="1" parent="qlpNwuft5wFHGggAAQwj-303">
          <mxGeometry x="180.6976744186045" y="50" width="34.41860465116279" height="29.999999999999996" as="geometry" />
        </mxCell>
        <mxCell id="qlpNwuft5wFHGggAAQwj-317" value="&lt;font style=&quot;font-size: 14px;&quot;&gt;R12&lt;/font&gt;" style="rounded=1;whiteSpace=wrap;html=1;arcSize=12;container=0;" vertex="1" parent="qlpNwuft5wFHGggAAQwj-303">
          <mxGeometry x="223.7209302325582" y="50" width="34.41860465116279" height="29.999999999999996" as="geometry" />
        </mxCell>
        <mxCell id="qlpNwuft5wFHGggAAQwj-318" value="&lt;font style=&quot;font-size: 14px;&quot;&gt;R13&lt;/font&gt;" style="rounded=1;whiteSpace=wrap;html=1;arcSize=12;container=0;" vertex="1" parent="qlpNwuft5wFHGggAAQwj-303">
          <mxGeometry x="266.74418604651146" y="50" width="34.41860465116279" height="29.999999999999996" as="geometry" />
        </mxCell>
        <mxCell id="qlpNwuft5wFHGggAAQwj-319" value="&lt;font style=&quot;font-size: 14px;&quot;&gt;R14&lt;/font&gt;" style="rounded=1;whiteSpace=wrap;html=1;arcSize=12;container=0;" vertex="1" parent="qlpNwuft5wFHGggAAQwj-303">
          <mxGeometry x="8.60465116279056" y="90" width="34.41860465116279" height="29.999999999999996" as="geometry" />
        </mxCell>
        <mxCell id="qlpNwuft5wFHGggAAQwj-320" value="&lt;font style=&quot;font-size: 14px;&quot;&gt;R15&lt;/font&gt;" style="rounded=1;whiteSpace=wrap;html=1;arcSize=12;container=0;" vertex="1" parent="qlpNwuft5wFHGggAAQwj-303">
          <mxGeometry x="51.62790697674427" y="90" width="34.41860465116279" height="29.999999999999996" as="geometry" />
        </mxCell>
        <mxCell id="qlpNwuft5wFHGggAAQwj-321" value="&lt;font style=&quot;font-size: 14px;&quot;&gt;R16&lt;/font&gt;" style="rounded=1;whiteSpace=wrap;html=1;arcSize=12;container=0;" vertex="1" parent="qlpNwuft5wFHGggAAQwj-303">
          <mxGeometry x="94.65116279069753" y="90" width="34.41860465116279" height="29.999999999999996" as="geometry" />
        </mxCell>
        <mxCell id="qlpNwuft5wFHGggAAQwj-322" value="&lt;font style=&quot;font-size: 14px;&quot;&gt;R17&lt;/font&gt;" style="rounded=1;whiteSpace=wrap;html=1;arcSize=12;container=0;" vertex="1" parent="qlpNwuft5wFHGggAAQwj-303">
          <mxGeometry x="137.67441860465124" y="90" width="34.41860465116279" height="29.999999999999996" as="geometry" />
        </mxCell>
        <mxCell id="qlpNwuft5wFHGggAAQwj-323" value="&lt;font style=&quot;font-size: 14px;&quot;&gt;R18&lt;/font&gt;" style="rounded=1;whiteSpace=wrap;html=1;arcSize=12;container=0;" vertex="1" parent="qlpNwuft5wFHGggAAQwj-303">
          <mxGeometry x="180.6976744186045" y="90" width="34.41860465116279" height="29.999999999999996" as="geometry" />
        </mxCell>
        <mxCell id="qlpNwuft5wFHGggAAQwj-324" value="&lt;font style=&quot;font-size: 14px;&quot;&gt;R19&lt;/font&gt;" style="rounded=1;whiteSpace=wrap;html=1;arcSize=12;container=0;" vertex="1" parent="qlpNwuft5wFHGggAAQwj-303">
          <mxGeometry x="223.7209302325582" y="90" width="34.41860465116279" height="29.999999999999996" as="geometry" />
        </mxCell>
        <mxCell id="qlpNwuft5wFHGggAAQwj-325" value="&lt;font style=&quot;font-size: 14px;&quot;&gt;R20&lt;/font&gt;" style="rounded=1;whiteSpace=wrap;html=1;arcSize=12;container=0;" vertex="1" parent="qlpNwuft5wFHGggAAQwj-303">
          <mxGeometry x="266.74418604651146" y="90" width="34.41860465116279" height="29.999999999999996" as="geometry" />
        </mxCell>
        <mxCell id="qlpNwuft5wFHGggAAQwj-326" value="&lt;font style=&quot;font-size: 14px;&quot;&gt;R21&lt;/font&gt;" style="rounded=1;whiteSpace=wrap;html=1;arcSize=12;container=0;" vertex="1" parent="qlpNwuft5wFHGggAAQwj-303">
          <mxGeometry x="8.60465116279056" y="130" width="34.41860465116279" height="29.999999999999996" as="geometry" />
        </mxCell>
        <mxCell id="qlpNwuft5wFHGggAAQwj-327" value="&lt;font style=&quot;font-size: 14px;&quot;&gt;R22&lt;/font&gt;" style="rounded=1;whiteSpace=wrap;html=1;arcSize=12;container=0;" vertex="1" parent="qlpNwuft5wFHGggAAQwj-303">
          <mxGeometry x="51.62790697674427" y="130" width="34.41860465116279" height="29.999999999999996" as="geometry" />
        </mxCell>
        <mxCell id="qlpNwuft5wFHGggAAQwj-328" value="&lt;font style=&quot;font-size: 14px;&quot;&gt;R23&lt;/font&gt;" style="rounded=1;whiteSpace=wrap;html=1;arcSize=12;container=0;" vertex="1" parent="qlpNwuft5wFHGggAAQwj-303">
          <mxGeometry x="94.65116279069753" y="130" width="34.41860465116279" height="29.999999999999996" as="geometry" />
        </mxCell>
        <mxCell id="qlpNwuft5wFHGggAAQwj-329" value="&lt;font style=&quot;font-size: 14px;&quot;&gt;R24&lt;/font&gt;" style="rounded=1;whiteSpace=wrap;html=1;arcSize=12;container=0;" vertex="1" parent="qlpNwuft5wFHGggAAQwj-303">
          <mxGeometry x="137.67441860465124" y="130" width="34.41860465116279" height="29.999999999999996" as="geometry" />
        </mxCell>
        <mxCell id="qlpNwuft5wFHGggAAQwj-330" value="&lt;font style=&quot;font-size: 14px;&quot;&gt;R25&lt;/font&gt;" style="rounded=1;whiteSpace=wrap;html=1;arcSize=12;container=0;" vertex="1" parent="qlpNwuft5wFHGggAAQwj-303">
          <mxGeometry x="180.6976744186045" y="130" width="34.41860465116279" height="29.999999999999996" as="geometry" />
        </mxCell>
        <mxCell id="qlpNwuft5wFHGggAAQwj-331" value="&lt;font style=&quot;font-size: 14px;&quot;&gt;R26&lt;/font&gt;" style="rounded=1;whiteSpace=wrap;html=1;arcSize=12;container=0;" vertex="1" parent="qlpNwuft5wFHGggAAQwj-303">
          <mxGeometry x="223.7209302325582" y="130" width="34.41860465116279" height="29.999999999999996" as="geometry" />
        </mxCell>
        <mxCell id="qlpNwuft5wFHGggAAQwj-332" value="&lt;font style=&quot;font-size: 14px;&quot;&gt;R27&lt;/font&gt;" style="rounded=1;whiteSpace=wrap;html=1;arcSize=12;container=0;" vertex="1" parent="qlpNwuft5wFHGggAAQwj-303">
          <mxGeometry x="266.74418604651146" y="130" width="34.41860465116279" height="29.999999999999996" as="geometry" />
        </mxCell>
        <mxCell id="qlpNwuft5wFHGggAAQwj-333" value="&lt;span style=&quot;font-size: 14px;&quot;&gt;IP&lt;/span&gt;" style="rounded=1;whiteSpace=wrap;html=1;arcSize=12;container=0;" vertex="1" parent="qlpNwuft5wFHGggAAQwj-303">
          <mxGeometry x="326.97674418604674" y="130" width="34.41860465116279" height="29.999999999999996" as="geometry" />
        </mxCell>
        <mxCell id="qlpNwuft5wFHGggAAQwj-334" value="&lt;font style=&quot;font-size: 8px;&quot;&gt;FLAGS&lt;/font&gt;" style="rounded=1;whiteSpace=wrap;html=1;arcSize=12;container=0;" vertex="1" parent="qlpNwuft5wFHGggAAQwj-303">
          <mxGeometry x="326.97674418604674" y="10" width="34.41860465116279" height="29.999999999999996" as="geometry" />
        </mxCell>
        <mxCell id="qlpNwuft5wFHGggAAQwj-335" value="&lt;font style=&quot;font-size: 10px;&quot;&gt;CTRL&lt;/font&gt;" style="rounded=1;whiteSpace=wrap;html=1;arcSize=12;container=0;" vertex="1" parent="qlpNwuft5wFHGggAAQwj-303">
          <mxGeometry x="326.97674418604674" y="90" width="34.41860465116279" height="29.999999999999996" as="geometry" />
        </mxCell>
        <mxCell id="qlpNwuft5wFHGggAAQwj-336" value="&lt;span style=&quot;font-size: 14px;&quot;&gt;CPU&lt;/span&gt;" style="rounded=1;whiteSpace=wrap;html=1;arcSize=12;container=0;" vertex="1" parent="qlpNwuft5wFHGggAAQwj-303">
          <mxGeometry x="326.97674418604674" y="50" width="34.41860465116279" height="29.999999999999996" as="geometry" />
        </mxCell>
        <mxCell id="qlpNwuft5wFHGggAAQwj-337" value="" style="group" vertex="1" connectable="0" parent="qlpNwuft5wFHGggAAQwj-296">
          <mxGeometry y="610" width="320" height="40" as="geometry" />
        </mxCell>
        <mxCell id="qlpNwuft5wFHGggAAQwj-338" value="" style="rounded=0;whiteSpace=wrap;html=1;" vertex="1" parent="qlpNwuft5wFHGggAAQwj-337">
          <mxGeometry width="320" height="40" as="geometry" />
        </mxCell>
        <mxCell id="qlpNwuft5wFHGggAAQwj-339" value="" style="group" vertex="1" connectable="0" parent="qlpNwuft5wFHGggAAQwj-337">
          <mxGeometry x="8.205128205128204" y="24" width="303.5897435897436" height="16" as="geometry" />
        </mxCell>
        <mxCell id="qlpNwuft5wFHGggAAQwj-340" value="" style="rounded=0;whiteSpace=wrap;html=1;fillColor=#647687;fontColor=#ffffff;strokeColor=#314354;container=0;" vertex="1" parent="qlpNwuft5wFHGggAAQwj-339">
          <mxGeometry y="10.790697674418603" width="94.16152474976005" height="5.209302325581397" as="geometry" />
        </mxCell>
        <mxCell id="qlpNwuft5wFHGggAAQwj-341" value="" style="rounded=0;whiteSpace=wrap;html=1;fillColor=#647687;fontColor=#ffffff;strokeColor=#314354;container=0;" vertex="1" parent="qlpNwuft5wFHGggAAQwj-339">
          <mxGeometry x="232.26509438274155" y="0.372093023255814" width="6.2774349833173355" height="15.627906976744185" as="geometry" />
        </mxCell>
        <mxCell id="qlpNwuft5wFHGggAAQwj-342" value="" style="rounded=0;whiteSpace=wrap;html=1;fillColor=#647687;fontColor=#ffffff;strokeColor=#314354;container=0;" vertex="1" parent="qlpNwuft5wFHGggAAQwj-339">
          <mxGeometry x="282.48457424928023" y="0.372093023255814" width="6.2774349833173355" height="15.627906976744185" as="geometry" />
        </mxCell>
        <mxCell id="qlpNwuft5wFHGggAAQwj-343" value="" style="rounded=0;whiteSpace=wrap;html=1;fillColor=#647687;fontColor=#ffffff;strokeColor=#314354;container=0;" vertex="1" parent="qlpNwuft5wFHGggAAQwj-339">
          <mxGeometry x="112.99382969971194" y="10.790697674418603" width="94.16152474976005" height="5.209302325581397" as="geometry" />
        </mxCell>
        <mxCell id="qlpNwuft5wFHGggAAQwj-344" value="ADDRLINE" style="text;strokeColor=none;align=center;fillColor=none;html=1;verticalAlign=middle;whiteSpace=wrap;rounded=0;container=0;" vertex="1" parent="qlpNwuft5wFHGggAAQwj-339">
          <mxGeometry x="25.595375291375227" width="42.97174825174825" height="5.953488372093024" as="geometry" />
        </mxCell>
        <mxCell id="qlpNwuft5wFHGggAAQwj-345" value="DATALINE" style="text;strokeColor=none;align=center;fillColor=none;html=1;verticalAlign=middle;whiteSpace=wrap;rounded=0;container=0;" vertex="1" parent="qlpNwuft5wFHGggAAQwj-339">
          <mxGeometry x="143.51515151515153" width="34.52643356643357" height="5.953488372093024" as="geometry" />
        </mxCell>
        <mxCell id="qlpNwuft5wFHGggAAQwj-346" value="RL" style="text;strokeColor=none;align=center;fillColor=none;html=1;verticalAlign=middle;whiteSpace=wrap;rounded=0;container=0;" vertex="1" parent="qlpNwuft5wFHGggAAQwj-339">
          <mxGeometry x="292.55011655011657" width="11.039627039627039" height="5.953488372093024" as="geometry" />
        </mxCell>
        <mxCell id="qlpNwuft5wFHGggAAQwj-347" value="WL" style="text;strokeColor=none;align=center;fillColor=none;html=1;verticalAlign=middle;whiteSpace=wrap;rounded=0;container=0;" vertex="1" parent="qlpNwuft5wFHGggAAQwj-339">
          <mxGeometry x="242.87179487179486" y="0.372093023255814" width="11.039627039627039" height="5.953488372093024" as="geometry" />
        </mxCell>
        <mxCell id="qlpNwuft5wFHGggAAQwj-348" value="&lt;font style=&quot;font-size: 10px;&quot;&gt;MEMORY BUS&lt;/font&gt;" style="text;strokeColor=none;align=center;fillColor=none;html=1;verticalAlign=middle;whiteSpace=wrap;rounded=0;" vertex="1" parent="qlpNwuft5wFHGggAAQwj-337">
          <mxGeometry x="131.28205128205127" width="82.05128205128204" height="16" as="geometry" />
        </mxCell>
        <mxCell id="qlpNwuft5wFHGggAAQwj-349" value="" style="group" vertex="1" connectable="0" parent="qlpNwuft5wFHGggAAQwj-296">
          <mxGeometry x="340" y="610" width="300" height="40" as="geometry" />
        </mxCell>
        <mxCell id="qlpNwuft5wFHGggAAQwj-350" value="" style="rounded=0;whiteSpace=wrap;html=1;" vertex="1" parent="qlpNwuft5wFHGggAAQwj-349">
          <mxGeometry width="300" height="40" as="geometry" />
        </mxCell>
        <mxCell id="qlpNwuft5wFHGggAAQwj-351" value="" style="group" vertex="1" connectable="0" parent="qlpNwuft5wFHGggAAQwj-349">
          <mxGeometry x="7.6923076923076925" y="24" width="284.61538461538464" height="16" as="geometry" />
        </mxCell>
        <mxCell id="qlpNwuft5wFHGggAAQwj-352" value="" style="rounded=0;whiteSpace=wrap;html=1;fillColor=#647687;fontColor=#ffffff;strokeColor=#314354;container=0;" vertex="1" parent="qlpNwuft5wFHGggAAQwj-351">
          <mxGeometry y="10.790697674418603" width="88.27642945290006" height="5.209302325581397" as="geometry" />
        </mxCell>
        <mxCell id="qlpNwuft5wFHGggAAQwj-353" value="" style="rounded=0;whiteSpace=wrap;html=1;fillColor=#647687;fontColor=#ffffff;strokeColor=#314354;container=0;" vertex="1" parent="qlpNwuft5wFHGggAAQwj-351">
          <mxGeometry x="217.74852598382026" y="0.372093023255814" width="5.885095296860003" height="15.627906976744185" as="geometry" />
        </mxCell>
        <mxCell id="qlpNwuft5wFHGggAAQwj-354" value="" style="rounded=0;whiteSpace=wrap;html=1;fillColor=#647687;fontColor=#ffffff;strokeColor=#314354;container=0;" vertex="1" parent="qlpNwuft5wFHGggAAQwj-351">
          <mxGeometry x="264.8292883587003" y="0.372093023255814" width="5.885095296860003" height="15.627906976744185" as="geometry" />
        </mxCell>
        <mxCell id="qlpNwuft5wFHGggAAQwj-355" value="" style="rounded=0;whiteSpace=wrap;html=1;fillColor=#647687;fontColor=#ffffff;strokeColor=#314354;container=0;" vertex="1" parent="qlpNwuft5wFHGggAAQwj-351">
          <mxGeometry x="105.93171534347996" y="10.790697674418603" width="88.27642945290006" height="5.209302325581397" as="geometry" />
        </mxCell>
        <mxCell id="qlpNwuft5wFHGggAAQwj-356" value="PORTID" style="text;strokeColor=none;align=center;fillColor=none;html=1;verticalAlign=middle;whiteSpace=wrap;rounded=0;container=0;" vertex="1" parent="qlpNwuft5wFHGggAAQwj-351">
          <mxGeometry x="23.99566433566428" width="40.286013986014" height="5.953488372093024" as="geometry" />
        </mxCell>
        <mxCell id="qlpNwuft5wFHGggAAQwj-357" value="DATALINE" style="text;strokeColor=none;align=center;fillColor=none;html=1;verticalAlign=middle;whiteSpace=wrap;rounded=0;container=0;" vertex="1" parent="qlpNwuft5wFHGggAAQwj-351">
          <mxGeometry x="134.5454545454546" width="32.36853146853148" height="5.953488372093024" as="geometry" />
        </mxCell>
        <mxCell id="qlpNwuft5wFHGggAAQwj-358" value="RL" style="text;strokeColor=none;align=center;fillColor=none;html=1;verticalAlign=middle;whiteSpace=wrap;rounded=0;container=0;" vertex="1" parent="qlpNwuft5wFHGggAAQwj-351">
          <mxGeometry x="274.26573426573435" width="10.349650349650352" height="5.953488372093024" as="geometry" />
        </mxCell>
        <mxCell id="qlpNwuft5wFHGggAAQwj-359" value="WL" style="text;strokeColor=none;align=center;fillColor=none;html=1;verticalAlign=middle;whiteSpace=wrap;rounded=0;container=0;" vertex="1" parent="qlpNwuft5wFHGggAAQwj-351">
          <mxGeometry x="227.69230769230774" y="0.372093023255814" width="10.349650349650352" height="5.953488372093024" as="geometry" />
        </mxCell>
        <mxCell id="qlpNwuft5wFHGggAAQwj-360" value="&lt;font style=&quot;font-size: 10px;&quot;&gt;PORT BUS&lt;/font&gt;" style="text;strokeColor=none;align=center;fillColor=none;html=1;verticalAlign=middle;whiteSpace=wrap;rounded=0;" vertex="1" parent="qlpNwuft5wFHGggAAQwj-349">
          <mxGeometry x="123.07692307692308" width="76.92307692307692" height="16" as="geometry" />
        </mxCell>
        <mxCell id="qlpNwuft5wFHGggAAQwj-361" value="&lt;span style=&quot;font-size: 14px;&quot;&gt;CORE-CTRL&lt;/span&gt;" style="rounded=1;whiteSpace=wrap;html=1;arcSize=10;container=0;" vertex="1" parent="qlpNwuft5wFHGggAAQwj-296">
          <mxGeometry x="310" y="10" width="100" height="120" as="geometry" />
        </mxCell>
        <mxCell id="qlpNwuft5wFHGggAAQwj-362" value="&lt;font style=&quot;font-size: 24px;&quot;&gt;SRAM&lt;/font&gt;" style="rounded=1;whiteSpace=wrap;html=1;arcSize=2;container=0;" vertex="1" parent="qlpNwuft5wFHGggAAQwj-296">
          <mxGeometry x="420" y="10" width="220" height="590" as="geometry" />
        </mxCell>
        <mxCell id="qlpNwuft5wFHGggAAQwj-363" value="HLT" style="rounded=0;whiteSpace=wrap;html=1;" vertex="1" parent="qlpNwuft5wFHGggAAQwj-296">
          <mxGeometry y="100" width="30" height="30" as="geometry" />
        </mxCell>
        <mxCell id="qlpNwuft5wFHGggAAQwj-364" value="&lt;font style=&quot;font-size: 10px;&quot;&gt;WIPE&lt;/font&gt;" style="rounded=0;whiteSpace=wrap;html=1;" vertex="1" parent="qlpNwuft5wFHGggAAQwj-296">
          <mxGeometry y="140" width="30" height="30" as="geometry" />
        </mxCell>
        <mxCell id="qlpNwuft5wFHGggAAQwj-365" value="&lt;font style=&quot;font-size: 10px;&quot;&gt;CTRL&lt;/font&gt;" style="rounded=0;whiteSpace=wrap;html=1;align=center;" vertex="1" parent="qlpNwuft5wFHGggAAQwj-296">
          <mxGeometry y="180" width="30" height="90" as="geometry" />
        </mxCell>
        <mxCell id="qlpNwuft5wFHGggAAQwj-366" value="RST" style="rounded=0;whiteSpace=wrap;html=1;" vertex="1" parent="qlpNwuft5wFHGggAAQwj-296">
          <mxGeometry y="60" width="30" height="30" as="geometry" />
        </mxCell>
        <mxCell id="qlpNwuft5wFHGggAAQwj-367" value="EN" style="rounded=0;whiteSpace=wrap;html=1;" vertex="1" parent="qlpNwuft5wFHGggAAQwj-296">
          <mxGeometry y="20" width="30" height="30" as="geometry" />
        </mxCell>
        <mxCell id="qlpNwuft5wFHGggAAQwj-368" value="&lt;font style=&quot;font-size: 10px;&quot;&gt;DO&lt;/font&gt;" style="rounded=0;whiteSpace=wrap;html=1;align=center;" vertex="1" parent="qlpNwuft5wFHGggAAQwj-296">
          <mxGeometry y="280" width="30" height="310" as="geometry" />
        </mxCell>
        <mxCell id="qlpNwuft5wFHGggAAQwj-369" value="" style="group" vertex="1" connectable="0" parent="1">
          <mxGeometry x="2880" y="2200" width="650" height="650" as="geometry" />
        </mxCell>
        <mxCell id="qlpNwuft5wFHGggAAQwj-370" value="" style="whiteSpace=wrap;html=1;aspect=fixed;container=0;" vertex="1" parent="qlpNwuft5wFHGggAAQwj-369">
          <mxGeometry width="650" height="650" as="geometry" />
        </mxCell>
        <mxCell id="qlpNwuft5wFHGggAAQwj-371" value="&lt;font style=&quot;font-size: 24px;&quot;&gt;ALU&lt;/font&gt;" style="rounded=1;whiteSpace=wrap;html=1;arcSize=6;container=0;" vertex="1" parent="qlpNwuft5wFHGggAAQwj-369">
          <mxGeometry x="40" y="10" width="260" height="120" as="geometry" />
        </mxCell>
        <mxCell id="qlpNwuft5wFHGggAAQwj-372" value="&lt;font style=&quot;font-size: 24px;&quot;&gt;DECODER&lt;/font&gt;" style="rounded=1;whiteSpace=wrap;html=1;arcSize=6;container=0;" vertex="1" parent="qlpNwuft5wFHGggAAQwj-369">
          <mxGeometry x="40" y="540" width="240" height="60" as="geometry" />
        </mxCell>
        <mxCell id="qlpNwuft5wFHGggAAQwj-373" value="&lt;font style=&quot;font-size: 24px;&quot;&gt;EXECUTE&lt;/font&gt;" style="rounded=1;whiteSpace=wrap;html=1;arcSize=2;container=0;imageHeight=24;" vertex="1" parent="qlpNwuft5wFHGggAAQwj-369">
          <mxGeometry x="40" y="320" width="240" height="210" as="geometry" />
        </mxCell>
        <mxCell id="qlpNwuft5wFHGggAAQwj-374" value="&lt;font style=&quot;font-size: 24px;&quot;&gt;MICRO-FLASH&amp;nbsp;&lt;br&gt;MEMORY&lt;br&gt;&lt;/font&gt;" style="rounded=1;whiteSpace=wrap;html=1;arcSize=5;container=0;" vertex="1" parent="qlpNwuft5wFHGggAAQwj-369">
          <mxGeometry x="290" y="380" width="120" height="220" as="geometry" />
        </mxCell>
        <mxCell id="qlpNwuft5wFHGggAAQwj-375" value="&lt;font style=&quot;font-size: 14px;&quot;&gt;MICROCODE TABLE&lt;/font&gt;" style="rounded=1;whiteSpace=wrap;html=1;arcSize=10;container=0;" vertex="1" parent="qlpNwuft5wFHGggAAQwj-369">
          <mxGeometry x="290" y="320" width="120" height="50" as="geometry" />
        </mxCell>
        <mxCell id="qlpNwuft5wFHGggAAQwj-376" value="" style="group" vertex="1" connectable="0" parent="qlpNwuft5wFHGggAAQwj-369">
          <mxGeometry x="40" y="140" width="370" height="170" as="geometry" />
        </mxCell>
        <mxCell id="qlpNwuft5wFHGggAAQwj-377" value="" style="rounded=1;whiteSpace=wrap;html=1;arcSize=6;container=0;" vertex="1" parent="qlpNwuft5wFHGggAAQwj-376">
          <mxGeometry width="369.99999999999994" height="170" as="geometry" />
        </mxCell>
        <mxCell id="qlpNwuft5wFHGggAAQwj-378" value="&lt;font style=&quot;font-size: 14px;&quot;&gt;R0&lt;/font&gt;" style="rounded=1;whiteSpace=wrap;html=1;arcSize=12;container=0;" vertex="1" parent="qlpNwuft5wFHGggAAQwj-376">
          <mxGeometry x="8.60465116279056" y="10" width="34.41860465116279" height="29.999999999999996" as="geometry" />
        </mxCell>
        <mxCell id="qlpNwuft5wFHGggAAQwj-379" value="&lt;font style=&quot;font-size: 14px;&quot;&gt;R1&lt;/font&gt;" style="rounded=1;whiteSpace=wrap;html=1;arcSize=12;container=0;" vertex="1" parent="qlpNwuft5wFHGggAAQwj-376">
          <mxGeometry x="51.62790697674427" y="10" width="34.41860465116279" height="29.999999999999996" as="geometry" />
        </mxCell>
        <mxCell id="qlpNwuft5wFHGggAAQwj-380" value="&lt;font style=&quot;font-size: 14px;&quot;&gt;R2&lt;/font&gt;" style="rounded=1;whiteSpace=wrap;html=1;arcSize=12;container=0;" vertex="1" parent="qlpNwuft5wFHGggAAQwj-376">
          <mxGeometry x="94.65116279069753" y="10" width="34.41860465116279" height="29.999999999999996" as="geometry" />
        </mxCell>
        <mxCell id="qlpNwuft5wFHGggAAQwj-381" value="&lt;font style=&quot;font-size: 14px;&quot;&gt;R3&lt;/font&gt;" style="rounded=1;whiteSpace=wrap;html=1;arcSize=12;container=0;" vertex="1" parent="qlpNwuft5wFHGggAAQwj-376">
          <mxGeometry x="137.67441860465124" y="10" width="34.41860465116279" height="29.999999999999996" as="geometry" />
        </mxCell>
        <mxCell id="qlpNwuft5wFHGggAAQwj-382" value="&lt;font style=&quot;font-size: 14px;&quot;&gt;R4&lt;/font&gt;" style="rounded=1;whiteSpace=wrap;html=1;arcSize=12;container=0;" vertex="1" parent="qlpNwuft5wFHGggAAQwj-376">
          <mxGeometry x="180.6976744186045" y="10" width="34.41860465116279" height="29.999999999999996" as="geometry" />
        </mxCell>
        <mxCell id="qlpNwuft5wFHGggAAQwj-383" value="&lt;font style=&quot;font-size: 14px;&quot;&gt;R5&lt;/font&gt;" style="rounded=1;whiteSpace=wrap;html=1;arcSize=12;container=0;" vertex="1" parent="qlpNwuft5wFHGggAAQwj-376">
          <mxGeometry x="223.7209302325582" y="10" width="34.41860465116279" height="29.999999999999996" as="geometry" />
        </mxCell>
        <mxCell id="qlpNwuft5wFHGggAAQwj-384" value="&lt;font style=&quot;font-size: 14px;&quot;&gt;R6&lt;/font&gt;" style="rounded=1;whiteSpace=wrap;html=1;arcSize=12;container=0;" vertex="1" parent="qlpNwuft5wFHGggAAQwj-376">
          <mxGeometry x="266.74418604651146" y="10" width="34.41860465116279" height="29.999999999999996" as="geometry" />
        </mxCell>
        <mxCell id="qlpNwuft5wFHGggAAQwj-385" value="&lt;font style=&quot;font-size: 14px;&quot;&gt;R7&lt;/font&gt;" style="rounded=1;whiteSpace=wrap;html=1;arcSize=12;container=0;" vertex="1" parent="qlpNwuft5wFHGggAAQwj-376">
          <mxGeometry x="8.60465116279056" y="50" width="34.41860465116279" height="29.999999999999996" as="geometry" />
        </mxCell>
        <mxCell id="qlpNwuft5wFHGggAAQwj-386" value="&lt;font style=&quot;font-size: 14px;&quot;&gt;R8&lt;/font&gt;" style="rounded=1;whiteSpace=wrap;html=1;arcSize=12;container=0;" vertex="1" parent="qlpNwuft5wFHGggAAQwj-376">
          <mxGeometry x="51.62790697674427" y="50" width="34.41860465116279" height="29.999999999999996" as="geometry" />
        </mxCell>
        <mxCell id="qlpNwuft5wFHGggAAQwj-387" value="&lt;font style=&quot;font-size: 14px;&quot;&gt;R9&lt;/font&gt;" style="rounded=1;whiteSpace=wrap;html=1;arcSize=12;container=0;" vertex="1" parent="qlpNwuft5wFHGggAAQwj-376">
          <mxGeometry x="94.65116279069753" y="50" width="34.41860465116279" height="29.999999999999996" as="geometry" />
        </mxCell>
        <mxCell id="qlpNwuft5wFHGggAAQwj-388" value="&lt;font style=&quot;font-size: 14px;&quot;&gt;R10&lt;/font&gt;" style="rounded=1;whiteSpace=wrap;html=1;arcSize=12;container=0;" vertex="1" parent="qlpNwuft5wFHGggAAQwj-376">
          <mxGeometry x="137.67441860465124" y="50" width="34.41860465116279" height="29.999999999999996" as="geometry" />
        </mxCell>
        <mxCell id="qlpNwuft5wFHGggAAQwj-389" value="&lt;font style=&quot;font-size: 14px;&quot;&gt;R11&lt;/font&gt;" style="rounded=1;whiteSpace=wrap;html=1;arcSize=12;container=0;" vertex="1" parent="qlpNwuft5wFHGggAAQwj-376">
          <mxGeometry x="180.6976744186045" y="50" width="34.41860465116279" height="29.999999999999996" as="geometry" />
        </mxCell>
        <mxCell id="qlpNwuft5wFHGggAAQwj-390" value="&lt;font style=&quot;font-size: 14px;&quot;&gt;R12&lt;/font&gt;" style="rounded=1;whiteSpace=wrap;html=1;arcSize=12;container=0;" vertex="1" parent="qlpNwuft5wFHGggAAQwj-376">
          <mxGeometry x="223.7209302325582" y="50" width="34.41860465116279" height="29.999999999999996" as="geometry" />
        </mxCell>
        <mxCell id="qlpNwuft5wFHGggAAQwj-391" value="&lt;font style=&quot;font-size: 14px;&quot;&gt;R13&lt;/font&gt;" style="rounded=1;whiteSpace=wrap;html=1;arcSize=12;container=0;" vertex="1" parent="qlpNwuft5wFHGggAAQwj-376">
          <mxGeometry x="266.74418604651146" y="50" width="34.41860465116279" height="29.999999999999996" as="geometry" />
        </mxCell>
        <mxCell id="qlpNwuft5wFHGggAAQwj-392" value="&lt;font style=&quot;font-size: 14px;&quot;&gt;R14&lt;/font&gt;" style="rounded=1;whiteSpace=wrap;html=1;arcSize=12;container=0;" vertex="1" parent="qlpNwuft5wFHGggAAQwj-376">
          <mxGeometry x="8.60465116279056" y="90" width="34.41860465116279" height="29.999999999999996" as="geometry" />
        </mxCell>
        <mxCell id="qlpNwuft5wFHGggAAQwj-393" value="&lt;font style=&quot;font-size: 14px;&quot;&gt;R15&lt;/font&gt;" style="rounded=1;whiteSpace=wrap;html=1;arcSize=12;container=0;" vertex="1" parent="qlpNwuft5wFHGggAAQwj-376">
          <mxGeometry x="51.62790697674427" y="90" width="34.41860465116279" height="29.999999999999996" as="geometry" />
        </mxCell>
        <mxCell id="qlpNwuft5wFHGggAAQwj-394" value="&lt;font style=&quot;font-size: 14px;&quot;&gt;R16&lt;/font&gt;" style="rounded=1;whiteSpace=wrap;html=1;arcSize=12;container=0;" vertex="1" parent="qlpNwuft5wFHGggAAQwj-376">
          <mxGeometry x="94.65116279069753" y="90" width="34.41860465116279" height="29.999999999999996" as="geometry" />
        </mxCell>
        <mxCell id="qlpNwuft5wFHGggAAQwj-395" value="&lt;font style=&quot;font-size: 14px;&quot;&gt;R17&lt;/font&gt;" style="rounded=1;whiteSpace=wrap;html=1;arcSize=12;container=0;" vertex="1" parent="qlpNwuft5wFHGggAAQwj-376">
          <mxGeometry x="137.67441860465124" y="90" width="34.41860465116279" height="29.999999999999996" as="geometry" />
        </mxCell>
        <mxCell id="qlpNwuft5wFHGggAAQwj-396" value="&lt;font style=&quot;font-size: 14px;&quot;&gt;R18&lt;/font&gt;" style="rounded=1;whiteSpace=wrap;html=1;arcSize=12;container=0;" vertex="1" parent="qlpNwuft5wFHGggAAQwj-376">
          <mxGeometry x="180.6976744186045" y="90" width="34.41860465116279" height="29.999999999999996" as="geometry" />
        </mxCell>
        <mxCell id="qlpNwuft5wFHGggAAQwj-397" value="&lt;font style=&quot;font-size: 14px;&quot;&gt;R19&lt;/font&gt;" style="rounded=1;whiteSpace=wrap;html=1;arcSize=12;container=0;" vertex="1" parent="qlpNwuft5wFHGggAAQwj-376">
          <mxGeometry x="223.7209302325582" y="90" width="34.41860465116279" height="29.999999999999996" as="geometry" />
        </mxCell>
        <mxCell id="qlpNwuft5wFHGggAAQwj-398" value="&lt;font style=&quot;font-size: 14px;&quot;&gt;R20&lt;/font&gt;" style="rounded=1;whiteSpace=wrap;html=1;arcSize=12;container=0;" vertex="1" parent="qlpNwuft5wFHGggAAQwj-376">
          <mxGeometry x="266.74418604651146" y="90" width="34.41860465116279" height="29.999999999999996" as="geometry" />
        </mxCell>
        <mxCell id="qlpNwuft5wFHGggAAQwj-399" value="&lt;font style=&quot;font-size: 14px;&quot;&gt;R21&lt;/font&gt;" style="rounded=1;whiteSpace=wrap;html=1;arcSize=12;container=0;" vertex="1" parent="qlpNwuft5wFHGggAAQwj-376">
          <mxGeometry x="8.60465116279056" y="130" width="34.41860465116279" height="29.999999999999996" as="geometry" />
        </mxCell>
        <mxCell id="qlpNwuft5wFHGggAAQwj-400" value="&lt;font style=&quot;font-size: 14px;&quot;&gt;R22&lt;/font&gt;" style="rounded=1;whiteSpace=wrap;html=1;arcSize=12;container=0;" vertex="1" parent="qlpNwuft5wFHGggAAQwj-376">
          <mxGeometry x="51.62790697674427" y="130" width="34.41860465116279" height="29.999999999999996" as="geometry" />
        </mxCell>
        <mxCell id="qlpNwuft5wFHGggAAQwj-401" value="&lt;font style=&quot;font-size: 14px;&quot;&gt;R23&lt;/font&gt;" style="rounded=1;whiteSpace=wrap;html=1;arcSize=12;container=0;" vertex="1" parent="qlpNwuft5wFHGggAAQwj-376">
          <mxGeometry x="94.65116279069753" y="130" width="34.41860465116279" height="29.999999999999996" as="geometry" />
        </mxCell>
        <mxCell id="qlpNwuft5wFHGggAAQwj-402" value="&lt;font style=&quot;font-size: 14px;&quot;&gt;R24&lt;/font&gt;" style="rounded=1;whiteSpace=wrap;html=1;arcSize=12;container=0;" vertex="1" parent="qlpNwuft5wFHGggAAQwj-376">
          <mxGeometry x="137.67441860465124" y="130" width="34.41860465116279" height="29.999999999999996" as="geometry" />
        </mxCell>
        <mxCell id="qlpNwuft5wFHGggAAQwj-403" value="&lt;font style=&quot;font-size: 14px;&quot;&gt;R25&lt;/font&gt;" style="rounded=1;whiteSpace=wrap;html=1;arcSize=12;container=0;" vertex="1" parent="qlpNwuft5wFHGggAAQwj-376">
          <mxGeometry x="180.6976744186045" y="130" width="34.41860465116279" height="29.999999999999996" as="geometry" />
        </mxCell>
        <mxCell id="qlpNwuft5wFHGggAAQwj-404" value="&lt;font style=&quot;font-size: 14px;&quot;&gt;R26&lt;/font&gt;" style="rounded=1;whiteSpace=wrap;html=1;arcSize=12;container=0;" vertex="1" parent="qlpNwuft5wFHGggAAQwj-376">
          <mxGeometry x="223.7209302325582" y="130" width="34.41860465116279" height="29.999999999999996" as="geometry" />
        </mxCell>
        <mxCell id="qlpNwuft5wFHGggAAQwj-405" value="&lt;font style=&quot;font-size: 14px;&quot;&gt;R27&lt;/font&gt;" style="rounded=1;whiteSpace=wrap;html=1;arcSize=12;container=0;" vertex="1" parent="qlpNwuft5wFHGggAAQwj-376">
          <mxGeometry x="266.74418604651146" y="130" width="34.41860465116279" height="29.999999999999996" as="geometry" />
        </mxCell>
        <mxCell id="qlpNwuft5wFHGggAAQwj-406" value="&lt;span style=&quot;font-size: 14px;&quot;&gt;IP&lt;/span&gt;" style="rounded=1;whiteSpace=wrap;html=1;arcSize=12;container=0;" vertex="1" parent="qlpNwuft5wFHGggAAQwj-376">
          <mxGeometry x="326.97674418604674" y="130" width="34.41860465116279" height="29.999999999999996" as="geometry" />
        </mxCell>
        <mxCell id="qlpNwuft5wFHGggAAQwj-407" value="&lt;font style=&quot;font-size: 8px;&quot;&gt;FLAGS&lt;/font&gt;" style="rounded=1;whiteSpace=wrap;html=1;arcSize=12;container=0;" vertex="1" parent="qlpNwuft5wFHGggAAQwj-376">
          <mxGeometry x="326.97674418604674" y="10" width="34.41860465116279" height="29.999999999999996" as="geometry" />
        </mxCell>
        <mxCell id="qlpNwuft5wFHGggAAQwj-408" value="&lt;font style=&quot;font-size: 10px;&quot;&gt;CTRL&lt;/font&gt;" style="rounded=1;whiteSpace=wrap;html=1;arcSize=12;container=0;" vertex="1" parent="qlpNwuft5wFHGggAAQwj-376">
          <mxGeometry x="326.97674418604674" y="90" width="34.41860465116279" height="29.999999999999996" as="geometry" />
        </mxCell>
        <mxCell id="qlpNwuft5wFHGggAAQwj-409" value="&lt;span style=&quot;font-size: 14px;&quot;&gt;CPU&lt;/span&gt;" style="rounded=1;whiteSpace=wrap;html=1;arcSize=12;container=0;" vertex="1" parent="qlpNwuft5wFHGggAAQwj-376">
          <mxGeometry x="326.97674418604674" y="50" width="34.41860465116279" height="29.999999999999996" as="geometry" />
        </mxCell>
        <mxCell id="qlpNwuft5wFHGggAAQwj-410" value="" style="group" vertex="1" connectable="0" parent="qlpNwuft5wFHGggAAQwj-369">
          <mxGeometry y="610" width="320" height="40" as="geometry" />
        </mxCell>
        <mxCell id="qlpNwuft5wFHGggAAQwj-411" value="" style="rounded=0;whiteSpace=wrap;html=1;" vertex="1" parent="qlpNwuft5wFHGggAAQwj-410">
          <mxGeometry width="320" height="40" as="geometry" />
        </mxCell>
        <mxCell id="qlpNwuft5wFHGggAAQwj-412" value="" style="group" vertex="1" connectable="0" parent="qlpNwuft5wFHGggAAQwj-410">
          <mxGeometry x="8.205128205128204" y="24" width="303.5897435897436" height="16" as="geometry" />
        </mxCell>
        <mxCell id="qlpNwuft5wFHGggAAQwj-413" value="" style="rounded=0;whiteSpace=wrap;html=1;fillColor=#647687;fontColor=#ffffff;strokeColor=#314354;container=0;" vertex="1" parent="qlpNwuft5wFHGggAAQwj-412">
          <mxGeometry y="10.790697674418603" width="94.16152474976005" height="5.209302325581397" as="geometry" />
        </mxCell>
        <mxCell id="qlpNwuft5wFHGggAAQwj-414" value="" style="rounded=0;whiteSpace=wrap;html=1;fillColor=#647687;fontColor=#ffffff;strokeColor=#314354;container=0;" vertex="1" parent="qlpNwuft5wFHGggAAQwj-412">
          <mxGeometry x="232.26509438274155" y="0.372093023255814" width="6.2774349833173355" height="15.627906976744185" as="geometry" />
        </mxCell>
        <mxCell id="qlpNwuft5wFHGggAAQwj-415" value="" style="rounded=0;whiteSpace=wrap;html=1;fillColor=#647687;fontColor=#ffffff;strokeColor=#314354;container=0;" vertex="1" parent="qlpNwuft5wFHGggAAQwj-412">
          <mxGeometry x="282.48457424928023" y="0.372093023255814" width="6.2774349833173355" height="15.627906976744185" as="geometry" />
        </mxCell>
        <mxCell id="qlpNwuft5wFHGggAAQwj-416" value="" style="rounded=0;whiteSpace=wrap;html=1;fillColor=#647687;fontColor=#ffffff;strokeColor=#314354;container=0;" vertex="1" parent="qlpNwuft5wFHGggAAQwj-412">
          <mxGeometry x="112.99382969971194" y="10.790697674418603" width="94.16152474976005" height="5.209302325581397" as="geometry" />
        </mxCell>
        <mxCell id="qlpNwuft5wFHGggAAQwj-417" value="ADDRLINE" style="text;strokeColor=none;align=center;fillColor=none;html=1;verticalAlign=middle;whiteSpace=wrap;rounded=0;container=0;" vertex="1" parent="qlpNwuft5wFHGggAAQwj-412">
          <mxGeometry x="25.595375291375227" width="42.97174825174825" height="5.953488372093024" as="geometry" />
        </mxCell>
        <mxCell id="qlpNwuft5wFHGggAAQwj-418" value="DATALINE" style="text;strokeColor=none;align=center;fillColor=none;html=1;verticalAlign=middle;whiteSpace=wrap;rounded=0;container=0;" vertex="1" parent="qlpNwuft5wFHGggAAQwj-412">
          <mxGeometry x="143.51515151515153" width="34.52643356643357" height="5.953488372093024" as="geometry" />
        </mxCell>
        <mxCell id="qlpNwuft5wFHGggAAQwj-419" value="RL" style="text;strokeColor=none;align=center;fillColor=none;html=1;verticalAlign=middle;whiteSpace=wrap;rounded=0;container=0;" vertex="1" parent="qlpNwuft5wFHGggAAQwj-412">
          <mxGeometry x="292.55011655011657" width="11.039627039627039" height="5.953488372093024" as="geometry" />
        </mxCell>
        <mxCell id="qlpNwuft5wFHGggAAQwj-420" value="WL" style="text;strokeColor=none;align=center;fillColor=none;html=1;verticalAlign=middle;whiteSpace=wrap;rounded=0;container=0;" vertex="1" parent="qlpNwuft5wFHGggAAQwj-412">
          <mxGeometry x="242.87179487179486" y="0.372093023255814" width="11.039627039627039" height="5.953488372093024" as="geometry" />
        </mxCell>
        <mxCell id="qlpNwuft5wFHGggAAQwj-421" value="&lt;font style=&quot;font-size: 10px;&quot;&gt;MEMORY BUS&lt;/font&gt;" style="text;strokeColor=none;align=center;fillColor=none;html=1;verticalAlign=middle;whiteSpace=wrap;rounded=0;" vertex="1" parent="qlpNwuft5wFHGggAAQwj-410">
          <mxGeometry x="131.28205128205127" width="82.05128205128204" height="16" as="geometry" />
        </mxCell>
        <mxCell id="qlpNwuft5wFHGggAAQwj-422" value="" style="group" vertex="1" connectable="0" parent="qlpNwuft5wFHGggAAQwj-369">
          <mxGeometry x="340" y="610" width="300" height="40" as="geometry" />
        </mxCell>
        <mxCell id="qlpNwuft5wFHGggAAQwj-423" value="" style="rounded=0;whiteSpace=wrap;html=1;" vertex="1" parent="qlpNwuft5wFHGggAAQwj-422">
          <mxGeometry width="300" height="40" as="geometry" />
        </mxCell>
        <mxCell id="qlpNwuft5wFHGggAAQwj-424" value="" style="group" vertex="1" connectable="0" parent="qlpNwuft5wFHGggAAQwj-422">
          <mxGeometry x="7.6923076923076925" y="24" width="284.61538461538464" height="16" as="geometry" />
        </mxCell>
        <mxCell id="qlpNwuft5wFHGggAAQwj-425" value="" style="rounded=0;whiteSpace=wrap;html=1;fillColor=#647687;fontColor=#ffffff;strokeColor=#314354;container=0;" vertex="1" parent="qlpNwuft5wFHGggAAQwj-424">
          <mxGeometry y="10.790697674418603" width="88.27642945290006" height="5.209302325581397" as="geometry" />
        </mxCell>
        <mxCell id="qlpNwuft5wFHGggAAQwj-426" value="" style="rounded=0;whiteSpace=wrap;html=1;fillColor=#647687;fontColor=#ffffff;strokeColor=#314354;container=0;" vertex="1" parent="qlpNwuft5wFHGggAAQwj-424">
          <mxGeometry x="217.74852598382026" y="0.372093023255814" width="5.885095296860003" height="15.627906976744185" as="geometry" />
        </mxCell>
        <mxCell id="qlpNwuft5wFHGggAAQwj-427" value="" style="rounded=0;whiteSpace=wrap;html=1;fillColor=#647687;fontColor=#ffffff;strokeColor=#314354;container=0;" vertex="1" parent="qlpNwuft5wFHGggAAQwj-424">
          <mxGeometry x="264.8292883587003" y="0.372093023255814" width="5.885095296860003" height="15.627906976744185" as="geometry" />
        </mxCell>
        <mxCell id="qlpNwuft5wFHGggAAQwj-428" value="" style="rounded=0;whiteSpace=wrap;html=1;fillColor=#647687;fontColor=#ffffff;strokeColor=#314354;container=0;" vertex="1" parent="qlpNwuft5wFHGggAAQwj-424">
          <mxGeometry x="105.93171534347996" y="10.790697674418603" width="88.27642945290006" height="5.209302325581397" as="geometry" />
        </mxCell>
        <mxCell id="qlpNwuft5wFHGggAAQwj-429" value="PORTID" style="text;strokeColor=none;align=center;fillColor=none;html=1;verticalAlign=middle;whiteSpace=wrap;rounded=0;container=0;" vertex="1" parent="qlpNwuft5wFHGggAAQwj-424">
          <mxGeometry x="23.99566433566428" width="40.286013986014" height="5.953488372093024" as="geometry" />
        </mxCell>
        <mxCell id="qlpNwuft5wFHGggAAQwj-430" value="DATALINE" style="text;strokeColor=none;align=center;fillColor=none;html=1;verticalAlign=middle;whiteSpace=wrap;rounded=0;container=0;" vertex="1" parent="qlpNwuft5wFHGggAAQwj-424">
          <mxGeometry x="134.5454545454546" width="32.36853146853148" height="5.953488372093024" as="geometry" />
        </mxCell>
        <mxCell id="qlpNwuft5wFHGggAAQwj-431" value="RL" style="text;strokeColor=none;align=center;fillColor=none;html=1;verticalAlign=middle;whiteSpace=wrap;rounded=0;container=0;" vertex="1" parent="qlpNwuft5wFHGggAAQwj-424">
          <mxGeometry x="274.26573426573435" width="10.349650349650352" height="5.953488372093024" as="geometry" />
        </mxCell>
        <mxCell id="qlpNwuft5wFHGggAAQwj-432" value="WL" style="text;strokeColor=none;align=center;fillColor=none;html=1;verticalAlign=middle;whiteSpace=wrap;rounded=0;container=0;" vertex="1" parent="qlpNwuft5wFHGggAAQwj-424">
          <mxGeometry x="227.69230769230774" y="0.372093023255814" width="10.349650349650352" height="5.953488372093024" as="geometry" />
        </mxCell>
        <mxCell id="qlpNwuft5wFHGggAAQwj-433" value="&lt;font style=&quot;font-size: 10px;&quot;&gt;PORT BUS&lt;/font&gt;" style="text;strokeColor=none;align=center;fillColor=none;html=1;verticalAlign=middle;whiteSpace=wrap;rounded=0;" vertex="1" parent="qlpNwuft5wFHGggAAQwj-422">
          <mxGeometry x="123.07692307692308" width="76.92307692307692" height="16" as="geometry" />
        </mxCell>
        <mxCell id="qlpNwuft5wFHGggAAQwj-434" value="&lt;span style=&quot;font-size: 14px;&quot;&gt;CORE-CTRL&lt;/span&gt;" style="rounded=1;whiteSpace=wrap;html=1;arcSize=10;container=0;" vertex="1" parent="qlpNwuft5wFHGggAAQwj-369">
          <mxGeometry x="310" y="10" width="100" height="120" as="geometry" />
        </mxCell>
        <mxCell id="qlpNwuft5wFHGggAAQwj-435" value="&lt;font style=&quot;font-size: 24px;&quot;&gt;SRAM&lt;/font&gt;" style="rounded=1;whiteSpace=wrap;html=1;arcSize=2;container=0;" vertex="1" parent="qlpNwuft5wFHGggAAQwj-369">
          <mxGeometry x="420" y="10" width="220" height="590" as="geometry" />
        </mxCell>
        <mxCell id="qlpNwuft5wFHGggAAQwj-436" value="HLT" style="rounded=0;whiteSpace=wrap;html=1;" vertex="1" parent="qlpNwuft5wFHGggAAQwj-369">
          <mxGeometry y="100" width="30" height="30" as="geometry" />
        </mxCell>
        <mxCell id="qlpNwuft5wFHGggAAQwj-437" value="&lt;font style=&quot;font-size: 10px;&quot;&gt;WIPE&lt;/font&gt;" style="rounded=0;whiteSpace=wrap;html=1;" vertex="1" parent="qlpNwuft5wFHGggAAQwj-369">
          <mxGeometry y="140" width="30" height="30" as="geometry" />
        </mxCell>
        <mxCell id="qlpNwuft5wFHGggAAQwj-438" value="&lt;font style=&quot;font-size: 10px;&quot;&gt;CTRL&lt;/font&gt;" style="rounded=0;whiteSpace=wrap;html=1;align=center;" vertex="1" parent="qlpNwuft5wFHGggAAQwj-369">
          <mxGeometry y="180" width="30" height="90" as="geometry" />
        </mxCell>
        <mxCell id="qlpNwuft5wFHGggAAQwj-439" value="RST" style="rounded=0;whiteSpace=wrap;html=1;" vertex="1" parent="qlpNwuft5wFHGggAAQwj-369">
          <mxGeometry y="60" width="30" height="30" as="geometry" />
        </mxCell>
        <mxCell id="qlpNwuft5wFHGggAAQwj-440" value="EN" style="rounded=0;whiteSpace=wrap;html=1;" vertex="1" parent="qlpNwuft5wFHGggAAQwj-369">
          <mxGeometry y="20" width="30" height="30" as="geometry" />
        </mxCell>
        <mxCell id="qlpNwuft5wFHGggAAQwj-441" value="&lt;font style=&quot;font-size: 10px;&quot;&gt;DO&lt;/font&gt;" style="rounded=0;whiteSpace=wrap;html=1;align=center;" vertex="1" parent="qlpNwuft5wFHGggAAQwj-369">
          <mxGeometry y="280" width="30" height="310" as="geometry" />
        </mxCell>
        <mxCell id="qlpNwuft5wFHGggAAQwj-442" value="" style="rounded=0;whiteSpace=wrap;html=1;fillColor=#647687;strokeColor=none;fontColor=#ffffff;" vertex="1" parent="1">
          <mxGeometry x="2800" y="1400" width="20" height="1450" as="geometry" />
        </mxCell>
        <mxCell id="qlpNwuft5wFHGggAAQwj-443" value="" style="rounded=0;whiteSpace=wrap;html=1;fillColor=#647687;strokeColor=none;fontColor=#ffffff;direction=south;" vertex="1" parent="1">
          <mxGeometry x="2080" y="2115" width="1450" height="20" as="geometry" />
        </mxCell>
      </root>
    </mxGraphModel>
  </diagram>
</mxfile>
